<svg width="91" height="89" viewBox="0 0 91 89" fill="none" xmlns="http://www.w3.org/2000/svg">
<g filter="url(#filter0_d_1585_8580)">
<path d="M46.6733 14.8533C47.7 14.8533 48.54 15.6933 48.54 16.72C48.54 17.7466 47.7 18.5866 46.6733 18.5866C45.6467 18.5866 44.8333 17.7466 44.8333 16.72C44.8333 15.6933 45.6467 14.8533 46.6733 14.8533ZM49.5 27.3333H51.5V35.3333H49.5V27.3333ZM49.5 21.3333H51.5V23.3333H49.5V21.3333ZM42.8867 13.4666L40.1667 12.72L37.58 21.44L34.7 25.2266L39.06 26.4933L42.8867 13.4666ZM55.7267 34.7333C55.2467 35.24 54.6733 36 54.0333 36.2666C53.38 36.56 52.8867 36.6666 52.1667 36.6666H47.5L47.4067 32.6666C47.3933 32.44 47.3267 32.2266 47.2067 32L44.0067 26.32L45.18 22.6666C45.7521 23.7053 46.3299 24.7409 46.9133 25.7733C47.1133 26 47.4333 26.1733 47.7533 26.1733H50.7C50.9864 26.1733 51.2611 26.0595 51.4637 25.857C51.6662 25.6544 51.78 25.3797 51.78 25.0933C51.78 24.5333 51.34 24.08 50.78 24.04L48.5533 23.8666L46.0333 19.3333C46.0333 19.3333 45.5 18.56 44.3533 18.56C43.1933 18.56 42.8333 19.12 42.6067 19.8933L37.5 36.6666H33.5V39.3333H52.1667C53.9933 39.3333 55.54 38.4533 56.8333 37.16L55.7267 34.7333ZM42.5 29.1866L44.9933 33.1866L45.1667 36.6666H39.8333L42.5 29.1866Z" fill="white"/>
<path d="M16.2227 63.3369L11.9863 75H10.2549L15.1328 62.2031H16.249L16.2227 63.3369ZM19.7734 75L15.5283 63.3369L15.502 62.2031H16.6182L21.5137 75H19.7734ZM19.5537 70.2627V71.6514H12.3643V70.2627H19.5537ZM24.748 61.5V75H23.1133V61.5H24.748ZM28.9844 67.3184V78.6562H27.3496V65.4902H28.8438L28.9844 67.3184ZM35.3916 70.166V70.3506C35.3916 71.042 35.3096 71.6836 35.1455 72.2754C34.9814 72.8613 34.7412 73.3711 34.4248 73.8047C34.1143 74.2383 33.7305 74.5752 33.2734 74.8154C32.8164 75.0557 32.292 75.1758 31.7002 75.1758C31.0967 75.1758 30.5635 75.0762 30.1006 74.877C29.6377 74.6777 29.2451 74.3877 28.9229 74.0068C28.6006 73.626 28.3428 73.1689 28.1494 72.6357C27.9619 72.1025 27.833 71.502 27.7627 70.834V69.8496C27.833 69.1465 27.9648 68.5166 28.1582 67.96C28.3516 67.4033 28.6064 66.9287 28.9229 66.5361C29.2451 66.1377 29.6348 65.8359 30.0918 65.6309C30.5488 65.4199 31.0762 65.3145 31.6738 65.3145C32.2715 65.3145 32.8018 65.4316 33.2646 65.666C33.7275 65.8945 34.1172 66.2227 34.4336 66.6504C34.75 67.0781 34.9873 67.5908 35.1455 68.1885C35.3096 68.7803 35.3916 69.4395 35.3916 70.166ZM33.7568 70.3506V70.166C33.7568 69.6914 33.707 69.2461 33.6074 68.8301C33.5078 68.4082 33.3525 68.0391 33.1416 67.7227C32.9365 67.4004 32.6729 67.1484 32.3506 66.9668C32.0283 66.7793 31.6445 66.6855 31.1992 66.6855C30.7891 66.6855 30.4316 66.7559 30.127 66.8965C29.8281 67.0371 29.5732 67.2275 29.3623 67.4678C29.1514 67.7021 28.9785 67.9717 28.8438 68.2764C28.7148 68.5752 28.6182 68.8857 28.5537 69.208V71.4844C28.6709 71.8945 28.835 72.2812 29.0459 72.6445C29.2568 73.002 29.5381 73.292 29.8896 73.5146C30.2412 73.7314 30.6836 73.8398 31.2168 73.8398C31.6562 73.8398 32.0342 73.749 32.3506 73.5674C32.6729 73.3799 32.9365 73.125 33.1416 72.8027C33.3525 72.4805 33.5078 72.1113 33.6074 71.6953C33.707 71.2734 33.7568 70.8252 33.7568 70.3506ZM39.2324 65.4902V75H37.5977V65.4902H39.2324ZM37.4746 62.9678C37.4746 62.7041 37.5537 62.4814 37.7119 62.2998C37.876 62.1182 38.1162 62.0273 38.4326 62.0273C38.7432 62.0273 38.9805 62.1182 39.1445 62.2998C39.3145 62.4814 39.3994 62.7041 39.3994 62.9678C39.3994 63.2197 39.3145 63.4365 39.1445 63.6182C38.9805 63.7939 38.7432 63.8818 38.4326 63.8818C38.1162 63.8818 37.876 63.7939 37.7119 63.6182C37.5537 63.4365 37.4746 63.2197 37.4746 62.9678ZM43.4688 67.5205V75H41.8428V65.4902H43.3809L43.4688 67.5205ZM43.082 69.8848L42.4053 69.8584C42.4111 69.208 42.5078 68.6074 42.6953 68.0566C42.8828 67.5 43.1465 67.0166 43.4863 66.6064C43.8262 66.1963 44.2305 65.8799 44.6992 65.6572C45.1738 65.4287 45.6982 65.3145 46.2725 65.3145C46.7412 65.3145 47.1631 65.3789 47.5381 65.5078C47.9131 65.6309 48.2324 65.8301 48.4961 66.1055C48.7656 66.3809 48.9707 66.7383 49.1113 67.1777C49.252 67.6113 49.3223 68.1416 49.3223 68.7686V75H47.6875V68.751C47.6875 68.2529 47.6143 67.8545 47.4678 67.5557C47.3213 67.251 47.1074 67.0312 46.8262 66.8965C46.5449 66.7559 46.1992 66.6855 45.7891 66.6855C45.3848 66.6855 45.0156 66.7705 44.6816 66.9404C44.3535 67.1104 44.0693 67.3447 43.8291 67.6436C43.5947 67.9424 43.4102 68.2852 43.2754 68.6719C43.1465 69.0527 43.082 69.457 43.082 69.8848ZM53.5586 65.4902V75H51.9238V65.4902H53.5586ZM51.8008 62.9678C51.8008 62.7041 51.8799 62.4814 52.0381 62.2998C52.2021 62.1182 52.4424 62.0273 52.7588 62.0273C53.0693 62.0273 53.3066 62.1182 53.4707 62.2998C53.6406 62.4814 53.7256 62.7041 53.7256 62.9678C53.7256 63.2197 53.6406 63.4365 53.4707 63.6182C53.3066 63.7939 53.0693 63.8818 52.7588 63.8818C52.4424 63.8818 52.2021 63.7939 52.0381 63.6182C51.8799 63.4365 51.8008 63.2197 51.8008 62.9678ZM61.7061 72.4775C61.7061 72.2432 61.6533 72.0264 61.5479 71.8271C61.4482 71.6221 61.2402 71.4375 60.9238 71.2734C60.6133 71.1035 60.1445 70.957 59.5176 70.834C58.9902 70.7227 58.5127 70.5908 58.085 70.4385C57.6631 70.2861 57.3027 70.1016 57.0039 69.8848C56.7109 69.668 56.4854 69.4131 56.3271 69.1201C56.1689 68.8271 56.0898 68.4844 56.0898 68.0918C56.0898 67.7168 56.1719 67.3623 56.3359 67.0283C56.5059 66.6943 56.7432 66.3984 57.0479 66.1406C57.3584 65.8828 57.7305 65.6807 58.1641 65.5342C58.5977 65.3877 59.0811 65.3145 59.6143 65.3145C60.376 65.3145 61.0264 65.4492 61.5654 65.7188C62.1045 65.9883 62.5176 66.3486 62.8047 66.7998C63.0918 67.2451 63.2354 67.7402 63.2354 68.2852H61.6094C61.6094 68.0215 61.5303 67.7666 61.3721 67.5205C61.2197 67.2686 60.9941 67.0605 60.6953 66.8965C60.4023 66.7324 60.042 66.6504 59.6143 66.6504C59.1631 66.6504 58.7969 66.7207 58.5156 66.8613C58.2402 66.9961 58.0381 67.1689 57.9092 67.3799C57.7861 67.5908 57.7246 67.8135 57.7246 68.0479C57.7246 68.2236 57.7539 68.3818 57.8125 68.5225C57.877 68.6572 57.9883 68.7832 58.1465 68.9004C58.3047 69.0117 58.5273 69.1172 58.8145 69.2168C59.1016 69.3164 59.4678 69.416 59.9131 69.5156C60.6924 69.6914 61.334 69.9023 61.8379 70.1484C62.3418 70.3945 62.7168 70.6963 62.9629 71.0537C63.209 71.4111 63.332 71.8447 63.332 72.3545C63.332 72.7705 63.2441 73.1514 63.0684 73.4971C62.8984 73.8428 62.6494 74.1416 62.3213 74.3936C61.999 74.6396 61.6123 74.833 61.1611 74.9736C60.7158 75.1084 60.2148 75.1758 59.6582 75.1758C58.8203 75.1758 58.1113 75.0264 57.5312 74.7275C56.9512 74.4287 56.5117 74.042 56.2129 73.5674C55.9141 73.0928 55.7646 72.5918 55.7646 72.0645H57.3994C57.4229 72.5098 57.5518 72.8643 57.7861 73.1279C58.0205 73.3857 58.3076 73.5703 58.6475 73.6816C58.9873 73.7871 59.3242 73.8398 59.6582 73.8398C60.1035 73.8398 60.4756 73.7812 60.7744 73.6641C61.0791 73.5469 61.3105 73.3857 61.4688 73.1807C61.627 72.9756 61.7061 72.7412 61.7061 72.4775ZM67.085 67.3799V75H65.4502V65.4902H66.9971L67.085 67.3799ZM66.751 69.8848L65.9951 69.8584C66.001 69.208 66.0859 68.6074 66.25 68.0566C66.4141 67.5 66.6572 67.0166 66.9795 66.6064C67.3018 66.1963 67.7031 65.8799 68.1836 65.6572C68.6641 65.4287 69.2207 65.3145 69.8535 65.3145C70.2988 65.3145 70.709 65.3789 71.084 65.5078C71.459 65.6309 71.7842 65.8271 72.0596 66.0967C72.335 66.3662 72.5488 66.7119 72.7012 67.1338C72.8535 67.5557 72.9297 68.0654 72.9297 68.6631V75H71.3037V68.7422C71.3037 68.2441 71.2188 67.8457 71.0488 67.5469C70.8848 67.248 70.6504 67.0312 70.3457 66.8965C70.041 66.7559 69.6836 66.6855 69.2734 66.6855C68.793 66.6855 68.3916 66.7705 68.0693 66.9404C67.7471 67.1104 67.4893 67.3447 67.2959 67.6436C67.1025 67.9424 66.9619 68.2852 66.874 68.6719C66.792 69.0527 66.751 69.457 66.751 69.8848ZM72.9121 68.9883L71.8223 69.3223C71.8281 68.8008 71.9131 68.2998 72.0771 67.8193C72.2471 67.3389 72.4902 66.9111 72.8066 66.5361C73.1289 66.1611 73.5244 65.8652 73.9932 65.6484C74.4619 65.4258 74.998 65.3145 75.6016 65.3145C76.1113 65.3145 76.5625 65.3818 76.9551 65.5166C77.3535 65.6514 77.6875 65.8594 77.957 66.1406C78.2324 66.416 78.4404 66.7705 78.5811 67.2041C78.7217 67.6377 78.792 68.1533 78.792 68.751V75H77.1572V68.7334C77.1572 68.2002 77.0723 67.7871 76.9023 67.4941C76.7383 67.1953 76.5039 66.9873 76.1992 66.8701C75.9004 66.7471 75.543 66.6855 75.127 66.6855C74.7695 66.6855 74.4531 66.7471 74.1777 66.8701C73.9023 66.9932 73.6709 67.1631 73.4834 67.3799C73.2959 67.5908 73.1523 67.834 73.0527 68.1094C72.959 68.3848 72.9121 68.6777 72.9121 68.9883Z" fill="white"/>
</g>
<defs>
<filter id="filter0_d_1585_8580" x="-4" y="0" width="99" height="97" filterUnits="userSpaceOnUse" color-interpolation-filters="sRGB">
<feFlood flood-opacity="0" result="BackgroundImageFix"/>
<feColorMatrix in="SourceAlpha" type="matrix" values="0 0 0 0 0 0 0 0 0 0 0 0 0 0 0 0 0 0 127 0" result="hardAlpha"/>
<feOffset dy="4"/>
<feGaussianBlur stdDeviation="2"/>
<feComposite in2="hardAlpha" operator="out"/>
<feColorMatrix type="matrix" values="0 0 0 0 0 0 0 0 0 0 0 0 0 0 0 0 0 0 0.25 0"/>
<feBlend mode="normal" in2="BackgroundImageFix" result="effect1_dropShadow_1585_8580"/>
<feBlend mode="normal" in="SourceGraphic" in2="effect1_dropShadow_1585_8580" result="shape"/>
</filter>
</defs>
</svg>
