<svg width="33" height="32" viewBox="0 0 33 32" fill="none" xmlns="http://www.w3.org/2000/svg">
<path d="M17.6733 4.8533C18.7 4.8533 19.54 5.6933 19.54 6.71997C19.54 7.74664 18.7 8.58664 17.6733 8.58664C16.6467 8.58664 15.8333 7.74664 15.8333 6.71997C15.8333 5.6933 16.6467 4.8533 17.6733 4.8533ZM20.5 17.3333H22.5V25.3333H20.5V17.3333ZM20.5 11.3333H22.5V13.3333H20.5V11.3333ZM13.8867 3.46664L11.1667 2.71997L8.58 11.44L5.7 15.2266L10.06 16.4933L13.8867 3.46664ZM26.7267 24.7333C26.2467 25.24 25.6733 26 25.0333 26.2666C24.38 26.56 23.8867 26.6666 23.1667 26.6666H18.5L18.4067 22.6666C18.3933 22.44 18.3267 22.2266 18.2067 22L15.0067 16.32L16.18 12.6666C16.7521 13.7053 17.3299 14.7409 17.9133 15.7733C18.1133 16 18.4333 16.1733 18.7533 16.1733H21.7C21.9864 16.1733 22.2611 16.0595 22.4637 15.857C22.6662 15.6544 22.78 15.3797 22.78 15.0933C22.78 14.5333 22.34 14.08 21.78 14.04L19.5533 13.8666L17.0333 9.3333C17.0333 9.3333 16.5 8.55997 15.3533 8.55997C14.1933 8.55997 13.8333 9.11997 13.6067 9.8933L8.5 26.6666H4.5V29.3333H23.1667C24.9933 29.3333 26.54 28.4533 27.8333 27.16L26.7267 24.7333ZM13.5 19.1866L15.9933 23.1866L16.1667 26.6666H10.8333L13.5 19.1866Z" fill="white"/>
</svg>
