<svg width="185" height="64" viewBox="0 0 185 64" fill="none" xmlns="http://www.w3.org/2000/svg">
<rect width="185" height="64" rx="28" fill="white"/>
<path d="M40 18C32.2663 18 26 24.2663 26 32C26 39.7337 32.2663 46 40 46C47.7337 46 54 39.7337 54 32C54 24.2663 47.7337 18 40 18ZM34.6875 38.1181C34.6016 38.2647 34.4786 38.386 34.3309 38.4699C34.1833 38.5538 34.0161 38.5974 33.8462 38.5963C33.6731 38.5978 33.503 38.551 33.355 38.4613C33.2448 38.3974 33.1483 38.3124 33.071 38.2111C32.9937 38.1098 32.9372 37.9943 32.9047 37.8711C32.8721 37.748 32.8643 37.6196 32.8815 37.4934C32.8987 37.3672 32.9407 37.2456 33.005 37.1356L33.9606 35.5469C34.0089 35.4649 34.0778 35.3969 34.1605 35.3498C34.2431 35.3026 34.3367 35.2779 34.4319 35.2781H34.5731C35.2662 35.2781 35.7513 35.695 35.8925 36.0987L34.6875 38.1181ZM42.7781 34.9931L36.52 35H32.3606C32.2298 35.0006 32.1001 34.9745 31.9796 34.9235C31.8591 34.8724 31.7503 34.7974 31.6596 34.7031C31.569 34.6087 31.4984 34.4968 31.4523 34.3744C31.4062 34.2519 31.3854 34.1214 31.3913 33.9906C31.4113 33.4656 31.8694 33.0681 32.3912 33.0681H35.4062L38.9806 26.9838L37.8231 25.0119C37.5625 24.5625 37.6781 23.97 38.125 23.6875C38.2352 23.6162 38.3586 23.568 38.4879 23.5457C38.6172 23.5234 38.7497 23.5274 38.8773 23.5576C39.005 23.5878 39.1253 23.6435 39.2309 23.7213C39.3365 23.7992 39.4253 23.8976 39.4919 24.0106L40.1106 25.0675H40.1175L40.7369 24.0106C40.8036 23.8982 40.8922 23.8003 40.9975 23.7228C41.1028 23.6454 41.2227 23.5899 41.3499 23.5598C41.4771 23.5296 41.609 23.5254 41.7379 23.5473C41.8668 23.5693 41.9899 23.6169 42.1 23.6875C42.5444 23.97 42.6588 24.5625 42.3962 25.0138L41.2388 26.9856L40.1138 28.9038L37.6706 33.07V33.0769H41.2712C41.7225 33.0769 42.2881 33.3194 42.5169 33.7094L42.5369 33.75C42.7388 34.0931 42.8531 34.3288 42.8531 34.6719C42.8498 34.7833 42.825 34.893 42.78 34.995L42.7781 34.9931ZM47.6375 35H45.9431V35.0069L47.1819 37.1138C47.3151 37.3356 47.3559 37.601 47.2955 37.8526C47.235 38.1043 47.0782 38.3222 46.8587 38.4594C46.7066 38.5521 46.5319 38.6012 46.3538 38.6012C46.1844 38.6012 46.0179 38.5573 45.8705 38.4738C45.723 38.3904 45.5997 38.2702 45.5125 38.125L43.6819 35.0088L42.5444 33.0713L41.0769 30.5625C40.8643 30.2043 40.7488 29.7969 40.7417 29.3804C40.7345 28.9639 40.8361 28.5528 41.0362 28.1875C41.3262 27.6756 41.5481 27.5413 41.5481 27.5413L44.8125 33.0625H47.6194C48.1444 33.0625 48.595 33.4663 48.6194 33.9844C48.6244 34.1161 48.6028 34.2475 48.5558 34.3707C48.5088 34.4938 48.4374 34.6062 48.3458 34.7011C48.2543 34.7959 48.1445 34.8713 48.0231 34.9227C47.9017 34.974 47.7712 35.0003 47.6394 35H47.6375Z" fill="black"/>
<path d="M78.9824 26.6758L74.7344 39H72.166L77.5176 24.7812H79.1582L78.9824 26.6758ZM82.5371 39L78.2793 26.6758L78.0938 24.7812H79.7441L85.1152 39H82.5371ZM82.332 33.7266V35.6699H74.5977V33.7266H82.332ZM88.6602 30.4648V43.0625H86.3066V28.4336H88.4746L88.6602 30.4648ZM95.5449 33.6191V33.8242C95.5449 34.5924 95.4538 35.3053 95.2715 35.9629C95.0957 36.6139 94.832 37.1836 94.4805 37.6719C94.1354 38.1536 93.709 38.528 93.2012 38.7949C92.6934 39.0618 92.1074 39.1953 91.4434 39.1953C90.7858 39.1953 90.2096 39.0749 89.7148 38.834C89.2266 38.5866 88.8132 38.2383 88.4746 37.7891C88.1361 37.3398 87.8626 36.8125 87.6543 36.207C87.4525 35.5951 87.3092 34.9245 87.2246 34.1953V33.4043C87.3092 32.6296 87.4525 31.9264 87.6543 31.2949C87.8626 30.6634 88.1361 30.1198 88.4746 29.6641C88.8132 29.2083 89.2266 28.8568 89.7148 28.6094C90.2031 28.362 90.7728 28.2383 91.4238 28.2383C92.0879 28.2383 92.6771 28.3685 93.1914 28.6289C93.7057 28.8828 94.1387 29.2474 94.4902 29.7227C94.8418 30.1914 95.1055 30.7578 95.2812 31.4219C95.457 32.0794 95.5449 32.8118 95.5449 33.6191ZM93.1914 33.8242V33.6191C93.1914 33.1309 93.1458 32.6784 93.0547 32.2617C92.9635 31.8385 92.8203 31.4674 92.625 31.1484C92.4297 30.8294 92.179 30.582 91.873 30.4062C91.5736 30.224 91.2122 30.1328 90.7891 30.1328C90.3724 30.1328 90.0143 30.2044 89.7148 30.3477C89.4154 30.4844 89.1647 30.6764 88.9629 30.9238C88.7611 31.1712 88.6048 31.4609 88.4941 31.793C88.3835 32.1185 88.3053 32.4733 88.2598 32.8574V34.752C88.3379 35.2207 88.4714 35.6504 88.6602 36.041C88.849 36.4316 89.1159 36.7441 89.4609 36.9785C89.8125 37.2064 90.2617 37.3203 90.8086 37.3203C91.2318 37.3203 91.5931 37.2292 91.8926 37.0469C92.1921 36.8646 92.4362 36.6139 92.625 36.2949C92.8203 35.9694 92.9635 35.5951 93.0547 35.1719C93.1458 34.7487 93.1914 34.2995 93.1914 33.8242ZM99.9102 30.4648V43.0625H97.5566V28.4336H99.7246L99.9102 30.4648ZM106.795 33.6191V33.8242C106.795 34.5924 106.704 35.3053 106.521 35.9629C106.346 36.6139 106.082 37.1836 105.73 37.6719C105.385 38.1536 104.959 38.528 104.451 38.7949C103.943 39.0618 103.357 39.1953 102.693 39.1953C102.036 39.1953 101.46 39.0749 100.965 38.834C100.477 38.5866 100.063 38.2383 99.7246 37.7891C99.3861 37.3398 99.1126 36.8125 98.9043 36.207C98.7025 35.5951 98.5592 34.9245 98.4746 34.1953V33.4043C98.5592 32.6296 98.7025 31.9264 98.9043 31.2949C99.1126 30.6634 99.3861 30.1198 99.7246 29.6641C100.063 29.2083 100.477 28.8568 100.965 28.6094C101.453 28.362 102.023 28.2383 102.674 28.2383C103.338 28.2383 103.927 28.3685 104.441 28.6289C104.956 28.8828 105.389 29.2474 105.74 29.7227C106.092 30.1914 106.355 30.7578 106.531 31.4219C106.707 32.0794 106.795 32.8118 106.795 33.6191ZM104.441 33.8242V33.6191C104.441 33.1309 104.396 32.6784 104.305 32.2617C104.214 31.8385 104.07 31.4674 103.875 31.1484C103.68 30.8294 103.429 30.582 103.123 30.4062C102.824 30.224 102.462 30.1328 102.039 30.1328C101.622 30.1328 101.264 30.2044 100.965 30.3477C100.665 30.4844 100.415 30.6764 100.213 30.9238C100.011 31.1712 99.8548 31.4609 99.7441 31.793C99.6335 32.1185 99.5553 32.4733 99.5098 32.8574V34.752C99.5879 35.2207 99.7214 35.6504 99.9102 36.041C100.099 36.4316 100.366 36.7441 100.711 36.9785C101.062 37.2064 101.512 37.3203 102.059 37.3203C102.482 37.3203 102.843 37.2292 103.143 37.0469C103.442 36.8646 103.686 36.6139 103.875 36.2949C104.07 35.9694 104.214 35.5951 104.305 35.1719C104.396 34.7487 104.441 34.2995 104.441 33.8242ZM121.492 35.3379C121.492 35.0449 121.447 34.7845 121.355 34.5566C121.271 34.3288 121.118 34.1204 120.896 33.9316C120.675 33.7428 120.363 33.5605 119.959 33.3848C119.562 33.2025 119.054 33.0169 118.436 32.8281C117.758 32.6198 117.133 32.3887 116.561 32.1348C115.994 31.8743 115.499 31.5749 115.076 31.2363C114.653 30.8913 114.324 30.4974 114.09 30.0547C113.855 29.6055 113.738 29.0879 113.738 28.502C113.738 27.9225 113.859 27.3952 114.1 26.9199C114.347 26.4447 114.695 26.0345 115.145 25.6895C115.6 25.3379 116.137 25.0677 116.756 24.8789C117.374 24.6836 118.058 24.5859 118.807 24.5859C119.861 24.5859 120.77 24.7812 121.531 25.1719C122.299 25.5625 122.889 26.0866 123.299 26.7441C123.715 27.4017 123.924 28.1276 123.924 28.9219H121.492C121.492 28.4531 121.391 28.0397 121.189 27.6816C120.994 27.3171 120.695 27.0306 120.291 26.8223C119.894 26.6139 119.389 26.5098 118.777 26.5098C118.198 26.5098 117.716 26.5977 117.332 26.7734C116.948 26.9492 116.661 27.1868 116.473 27.4863C116.284 27.7858 116.189 28.1243 116.189 28.502C116.189 28.7689 116.251 29.013 116.375 29.2344C116.499 29.4492 116.688 29.651 116.941 29.8398C117.195 30.0221 117.514 30.1947 117.898 30.3574C118.283 30.5202 118.735 30.6764 119.256 30.8262C120.044 31.0605 120.73 31.321 121.316 31.6074C121.902 31.8874 122.391 32.2064 122.781 32.5645C123.172 32.9225 123.465 33.3294 123.66 33.7852C123.855 34.2344 123.953 34.7454 123.953 35.3184C123.953 35.9173 123.833 36.4577 123.592 36.9395C123.351 37.4147 123.006 37.8216 122.557 38.1602C122.114 38.4922 121.58 38.7493 120.955 38.9316C120.337 39.1074 119.646 39.1953 118.885 39.1953C118.201 39.1953 117.527 39.1042 116.863 38.9219C116.206 38.7396 115.607 38.4629 115.066 38.0918C114.526 37.7142 114.096 37.2454 113.777 36.6855C113.458 36.1191 113.299 35.4583 113.299 34.7031H115.75C115.75 35.1654 115.828 35.5592 115.984 35.8848C116.147 36.2103 116.372 36.4772 116.658 36.6855C116.945 36.8874 117.277 37.0371 117.654 37.1348C118.038 37.2324 118.449 37.2812 118.885 37.2812C119.458 37.2812 119.936 37.1999 120.32 37.0371C120.711 36.8743 121.004 36.6465 121.199 36.3535C121.395 36.0605 121.492 35.722 121.492 35.3379ZM130.73 28.4336V30.1523H124.773V28.4336H130.73ZM126.492 25.8457H128.846V36.0801C128.846 36.4056 128.891 36.6562 128.982 36.832C129.08 37.0013 129.214 37.1152 129.383 37.1738C129.552 37.2324 129.751 37.2617 129.979 37.2617C130.141 37.2617 130.298 37.252 130.447 37.2324C130.597 37.2129 130.717 37.1934 130.809 37.1738L130.818 38.9707C130.623 39.0293 130.395 39.0814 130.135 39.127C129.881 39.1725 129.588 39.1953 129.256 39.1953C128.715 39.1953 128.237 39.1009 127.82 38.9121C127.404 38.7168 127.078 38.401 126.844 37.9648C126.609 37.5286 126.492 36.9492 126.492 36.2266V25.8457ZM131.863 33.834V33.6094C131.863 32.8477 131.974 32.1413 132.195 31.4902C132.417 30.8327 132.736 30.263 133.152 29.7812C133.576 29.293 134.09 28.9154 134.695 28.6484C135.307 28.375 135.997 28.2383 136.766 28.2383C137.54 28.2383 138.23 28.375 138.836 28.6484C139.448 28.9154 139.965 29.293 140.389 29.7812C140.812 30.263 141.134 30.8327 141.355 31.4902C141.577 32.1413 141.688 32.8477 141.688 33.6094V33.834C141.688 34.5957 141.577 35.3021 141.355 35.9531C141.134 36.6042 140.812 37.1738 140.389 37.6621C139.965 38.1439 139.451 38.5215 138.846 38.7949C138.24 39.0618 137.553 39.1953 136.785 39.1953C136.01 39.1953 135.317 39.0618 134.705 38.7949C134.1 38.5215 133.585 38.1439 133.162 37.6621C132.739 37.1738 132.417 36.6042 132.195 35.9531C131.974 35.3021 131.863 34.5957 131.863 33.834ZM134.217 33.6094V33.834C134.217 34.3092 134.266 34.7585 134.363 35.1816C134.461 35.6048 134.614 35.9759 134.822 36.2949C135.031 36.6139 135.298 36.8646 135.623 37.0469C135.949 37.2292 136.336 37.3203 136.785 37.3203C137.221 37.3203 137.599 37.2292 137.918 37.0469C138.243 36.8646 138.51 36.6139 138.719 36.2949C138.927 35.9759 139.08 35.6048 139.178 35.1816C139.282 34.7585 139.334 34.3092 139.334 33.834V33.6094C139.334 33.1406 139.282 32.6979 139.178 32.2812C139.08 31.8581 138.924 31.4837 138.709 31.1582C138.501 30.8327 138.234 30.5788 137.908 30.3965C137.589 30.2077 137.208 30.1133 136.766 30.1133C136.323 30.1133 135.939 30.2077 135.613 30.3965C135.294 30.5788 135.031 30.8327 134.822 31.1582C134.614 31.4837 134.461 31.8581 134.363 32.2812C134.266 32.6979 134.217 33.1406 134.217 33.6094ZM146.023 30.4453V39H143.67V28.4336H145.916L146.023 30.4453ZM149.256 28.3652L149.236 30.5527C149.093 30.5267 148.937 30.5072 148.768 30.4941C148.605 30.4811 148.442 30.4746 148.279 30.4746C147.876 30.4746 147.521 30.5332 147.215 30.6504C146.909 30.7611 146.652 30.9238 146.443 31.1387C146.242 31.347 146.085 31.6009 145.975 31.9004C145.864 32.1999 145.799 32.5352 145.779 32.9062L145.242 32.9453C145.242 32.2812 145.307 31.666 145.438 31.0996C145.568 30.5332 145.763 30.0352 146.023 29.6055C146.29 29.1758 146.622 28.8405 147.02 28.5996C147.423 28.3587 147.889 28.2383 148.416 28.2383C148.559 28.2383 148.712 28.2513 148.875 28.2773C149.044 28.3034 149.171 28.3327 149.256 28.3652ZM155.193 39.1953C154.412 39.1953 153.706 39.0684 153.074 38.8145C152.449 38.554 151.915 38.1927 151.473 37.7305C151.036 37.2682 150.701 36.7246 150.467 36.0996C150.232 35.4746 150.115 34.8008 150.115 34.0781V33.6875C150.115 32.8607 150.236 32.112 150.477 31.4414C150.717 30.7708 151.053 30.1979 151.482 29.7227C151.912 29.2409 152.42 28.873 153.006 28.6191C153.592 28.3652 154.227 28.2383 154.91 28.2383C155.665 28.2383 156.326 28.3652 156.893 28.6191C157.459 28.873 157.928 29.2311 158.299 29.6934C158.676 30.1491 158.956 30.6927 159.139 31.3242C159.327 31.9557 159.422 32.6523 159.422 33.4141V34.4199H151.258V32.7305H157.098V32.5449C157.085 32.1217 157 31.7246 156.844 31.3535C156.694 30.9824 156.463 30.6829 156.15 30.4551C155.838 30.2272 155.421 30.1133 154.9 30.1133C154.51 30.1133 154.161 30.1979 153.855 30.3672C153.556 30.5299 153.305 30.7676 153.104 31.0801C152.902 31.3926 152.745 31.7702 152.635 32.2129C152.531 32.6491 152.479 33.1406 152.479 33.6875V34.0781C152.479 34.5404 152.54 34.9701 152.664 35.3672C152.794 35.7578 152.983 36.0996 153.23 36.3926C153.478 36.6855 153.777 36.9167 154.129 37.0859C154.48 37.2487 154.881 37.3301 155.33 37.3301C155.896 37.3301 156.401 37.2161 156.844 36.9883C157.286 36.7604 157.671 36.4382 157.996 36.0215L159.236 37.2227C159.008 37.5547 158.712 37.8737 158.348 38.1797C157.983 38.4792 157.537 38.7233 157.01 38.9121C156.489 39.1009 155.883 39.1953 155.193 39.1953Z" fill="black"/>
</svg>
