<svg width="33" height="32" viewBox="0 0 33 32" fill="none" xmlns="http://www.w3.org/2000/svg">
<path d="M25.4593 19.68C25.926 18.5467 26.1793 17.3333 26.1793 16C26.1793 15.04 26.0327 14.12 25.7793 13.2667C24.9127 13.4667 24.006 13.5733 23.0593 13.5733C21.1206 13.5754 19.2099 13.1114 17.4881 12.2203C15.7663 11.3292 14.2839 10.0373 13.166 8.45334C11.9701 11.3469 9.71418 13.6744 6.85935 14.96C6.80602 15.2933 6.80602 15.6533 6.80602 16C6.80602 17.273 7.05674 18.5334 7.54388 19.7095C8.03101 20.8855 8.74502 21.9541 9.64513 22.8542C11.463 24.6721 13.9285 25.6933 16.4993 25.6933C17.8993 25.6933 19.246 25.3867 20.4593 24.84C21.2193 26.2933 21.566 27.0133 21.5393 27.0133C19.3527 27.7467 17.6593 28.1067 16.4993 28.1067C13.2727 28.1067 10.1927 26.84 7.92602 24.56C6.54735 23.1856 5.52251 21.4973 4.93935 19.64H3.16602V13.5733H4.61935C5.05967 11.43 6.07201 9.44589 7.54893 7.83147C9.02586 6.21704 10.9123 5.03255 13.0081 4.40369C15.1038 3.77482 17.3307 3.72504 19.4525 4.25962C21.5743 4.7942 23.5117 5.8932 25.0593 7.44001C26.7396 9.11368 27.8858 11.2481 28.3527 13.5733H29.8327V19.64H29.7527L25.006 24L17.9393 23.2V20.9733H24.3793L25.4593 19.68ZM12.8593 15.6933C13.2593 15.6933 13.646 15.8533 13.926 16.1467C14.2074 16.4304 14.3653 16.8138 14.3653 17.2133C14.3653 17.6129 14.2074 17.9963 13.926 18.28C13.646 18.56 13.2593 18.72 12.8593 18.72C12.0193 18.72 11.3393 18.0533 11.3393 17.2133C11.3393 16.3733 12.0193 15.6933 12.8593 15.6933ZM20.126 15.6933C20.966 15.6933 21.6327 16.3733 21.6327 17.2133C21.6327 18.0533 20.966 18.72 20.126 18.72C19.286 18.72 18.606 18.0533 18.606 17.2133C18.606 16.8102 18.7662 16.4236 19.0512 16.1385C19.3363 15.8535 19.7229 15.6933 20.126 15.6933Z" fill="#E65C4F"/>
</svg>
