<svg width="125" height="55" viewBox="0 0 125 55" fill="none" xmlns="http://www.w3.org/2000/svg">
<path d="M6.38477 21.7109H8.54688C9.92969 21.7109 10.9785 21.4121 11.6934 20.8145C12.4082 20.2051 12.7656 19.3203 12.7656 18.1602C12.7656 17.0703 12.4082 16.2383 11.6934 15.6641C10.9902 15.0898 9.96484 14.8027 8.61719 14.8027H6.38477V21.7109ZM6.38477 10.5488H7.61523C9.2793 10.5488 10.457 10.3145 11.1484 9.8457C11.8398 9.37695 12.1855 8.5918 12.1855 7.49023C12.1855 6.41211 11.8516 5.64453 11.1836 5.1875C10.5273 4.73047 9.37305 4.50195 7.7207 4.50195H6.38477V10.5488ZM0.882812 26V0.265625H5.69922C8.19531 0.265625 10.0176 0.365234 11.166 0.564453C12.3262 0.751953 13.3281 1.06836 14.1719 1.51367C15.168 2.08789 15.9355 2.84375 16.4746 3.78125C17.0254 4.71875 17.3008 5.7793 17.3008 6.96289C17.3008 8.48633 16.8496 9.71094 15.9473 10.6367C15.0449 11.5508 13.6973 12.1602 11.9043 12.4648C13.9785 12.7695 15.543 13.4434 16.5977 14.4863C17.6641 15.5293 18.1973 16.918 18.1973 18.6523C18.1973 19.918 17.8926 21.0781 17.2832 22.1328C16.6738 23.1758 15.8359 23.9844 14.7695 24.5586C13.8203 25.0742 12.707 25.4434 11.4297 25.666C10.1523 25.8887 8.03711 26 5.08398 26H4.52148H0.882812ZM33.8418 15.5938C33.7012 14.5039 33.3027 13.6836 32.6465 13.1328C32.002 12.5703 31.1172 12.2891 29.9922 12.2891C28.8672 12.2891 27.9648 12.5703 27.2852 13.1328C26.6172 13.6836 26.1895 14.5039 26.002 15.5938H33.8418ZM38.7988 18.6172H25.8438C26.043 19.8594 26.4941 20.791 27.1973 21.4121C27.9004 22.0215 28.8555 22.3262 30.0625 22.3262C30.9766 22.3262 31.7617 22.1504 32.418 21.7988C33.0859 21.4473 33.6426 20.9141 34.0879 20.1992L38.1309 22.2207C37.1934 23.7324 36.0566 24.8574 34.7207 25.5957C33.3848 26.3223 31.7969 26.6855 29.957 26.6855C27.168 26.6855 24.959 25.8535 23.3301 24.1895C21.7012 22.5254 20.8867 20.2871 20.8867 17.4746C20.8867 14.7676 21.7363 12.541 23.4355 10.7949C25.1465 9.04883 27.332 8.17578 29.9922 8.17578C32.7344 8.17578 34.9023 8.99609 36.4961 10.6367C38.0898 12.2656 38.8867 14.4922 38.8867 17.3164C38.8867 17.4688 38.8809 17.6387 38.8691 17.8262C38.8574 18.002 38.834 18.2656 38.7988 18.6172Z" fill="white"/>
<path d="M0.882812 54V28.2656H6.5957L17.9863 43.2422C18.3145 43.6641 18.6719 44.2617 19.0586 45.0352C19.457 45.7969 19.8672 46.6992 20.2891 47.7422C20.1602 46.9805 20.0664 46.2246 20.0078 45.4746C19.9492 44.7246 19.9199 43.7871 19.9199 42.6621V28.2656H25.1758V54H19.7793L8.07227 38.7422C7.74414 38.3203 7.38672 37.7285 7 36.9668C6.61328 36.1934 6.20312 35.2734 5.76953 34.207C5.89844 34.9453 5.99219 35.6953 6.05078 36.457C6.10938 37.207 6.13867 38.1562 6.13867 39.3047V54H0.882812ZM43.5098 45.4043C43.5098 43.998 43.0996 42.8789 42.2793 42.0469C41.459 41.2031 40.3574 40.7812 38.9746 40.7812C37.5918 40.7812 36.4961 41.1973 35.6875 42.0293C34.8789 42.8613 34.4746 43.9863 34.4746 45.4043C34.4746 46.8105 34.8789 47.9355 35.6875 48.7793C36.4961 49.623 37.5918 50.0449 38.9746 50.0449C40.3457 50.0449 41.4414 49.623 42.2617 48.7793C43.0938 47.9355 43.5098 46.8105 43.5098 45.4043ZM48.6074 45.4395C48.6074 48.0879 47.6992 50.291 45.8828 52.0488C44.0781 53.8066 41.7871 54.6855 39.0098 54.6855C36.209 54.6855 33.9004 53.8066 32.084 52.0488C30.2676 50.291 29.3594 48.0879 29.3594 45.4395C29.3594 42.8027 30.2734 40.5996 32.1016 38.8301C33.9297 37.0605 36.2324 36.1758 39.0098 36.1758C41.7988 36.1758 44.0957 37.0488 45.9004 38.7949C47.7051 40.541 48.6074 42.7559 48.6074 45.4395ZM57.3438 54H52.334V36.7559H57.3438V39.4629C58.1641 38.3262 59.0371 37.4941 59.9629 36.9668C60.9004 36.4395 61.9609 36.1758 63.1445 36.1758C64.5742 36.1758 65.7344 36.4688 66.625 37.0547C67.5273 37.6406 68.166 38.5254 68.541 39.709C69.3379 38.5371 70.2402 37.6582 71.248 37.0723C72.2676 36.4746 73.3809 36.1758 74.5879 36.1758C75.8066 36.1758 76.8379 36.4043 77.6816 36.8613C78.5371 37.3066 79.1992 37.9805 79.668 38.8828C79.9141 39.375 80.0898 39.9316 80.1953 40.5527C80.3008 41.1738 80.3535 42.1172 80.3535 43.3828V43.9277V54H75.3438V45.4746C75.3438 43.377 75.127 41.9824 74.6934 41.291C74.2715 40.5996 73.5273 40.2539 72.4609 40.2539C71.1719 40.2539 70.2344 40.7344 69.6484 41.6953C69.0742 42.6562 68.7871 44.2266 68.7871 46.4062V54H63.7773V45.4746C63.7773 43.4473 63.5781 42.0762 63.1797 41.3613C62.7812 40.6465 62.0957 40.2891 61.123 40.2891C59.7988 40.2891 58.8379 40.7754 58.2402 41.748C57.6426 42.709 57.3438 44.2617 57.3438 46.4062V54ZM97.8438 45.3516C97.8438 43.8047 97.4512 42.5801 96.666 41.6777C95.8926 40.7754 94.8438 40.3242 93.5195 40.3242C92.1602 40.3242 91.0879 40.7754 90.3027 41.6777C89.5293 42.5684 89.1426 43.793 89.1426 45.3516C89.1426 46.9102 89.5234 48.123 90.2852 48.9902C91.0586 49.8574 92.125 50.291 93.4844 50.291C94.8672 50.291 95.9395 49.8574 96.7012 48.9902C97.4629 48.123 97.8438 46.9102 97.8438 45.3516ZM102.414 54H97.5625L97.6328 51.5215C96.9531 52.6113 96.1328 53.4141 95.1719 53.9297C94.2227 54.4336 93.0625 54.6855 91.6914 54.6855C89.4062 54.6855 87.5605 53.8359 86.1543 52.1367C84.7598 50.4375 84.0625 48.1934 84.0625 45.4043C84.0625 42.498 84.748 40.2363 86.1191 38.6191C87.502 36.9902 89.418 36.1758 91.8672 36.1758C93.1445 36.1758 94.2637 36.4629 95.2246 37.0371C96.1973 37.6113 97.0117 38.4668 97.668 39.6035V36.7559H102.414V54ZM119.852 45.3516C119.852 43.8047 119.459 42.5801 118.674 41.6777C117.9 40.7754 116.852 40.3242 115.527 40.3242C114.168 40.3242 113.096 40.7695 112.311 41.6602C111.537 42.5391 111.15 43.7578 111.15 45.3164C111.15 46.875 111.531 48.0938 112.293 48.9727C113.066 49.8516 114.133 50.291 115.492 50.291C116.875 50.291 117.947 49.8574 118.709 48.9902C119.471 48.123 119.852 46.9102 119.852 45.3516ZM124.422 54H119.57L119.641 51.5215C118.961 52.6113 118.141 53.4141 117.18 53.9297C116.23 54.4336 115.07 54.6855 113.699 54.6855C111.414 54.6855 109.568 53.8359 108.162 52.1367C106.768 50.4375 106.07 48.1934 106.07 45.4043C106.07 42.4863 106.756 40.2129 108.127 38.584C109.51 36.9551 111.426 36.1406 113.875 36.1406C115.129 36.1406 116.23 36.4277 117.18 37.002C118.129 37.5762 119.02 38.4844 119.852 39.7266C119.793 39.3047 119.746 38.8418 119.711 38.3379C119.688 37.8223 119.676 37.2363 119.676 36.5801V26.7539H124.422V54Z" fill="#E65C4F"/>
</svg>
