<svg width="32" height="32" viewBox="0 0 32 32" fill="none" xmlns="http://www.w3.org/2000/svg">
<path d="M15.9998 2.66669C17.7508 2.66669 19.4846 3.01156 21.1023 3.68163C22.72 4.35169 24.1898 5.33382 25.4279 6.57193C26.666 7.81004 27.6482 9.2799 28.3182 10.8976C28.9883 12.5152 29.3332 14.2491 29.3332 16C29.3332 19.5362 27.9284 22.9276 25.4279 25.4281C22.9274 27.9286 19.5361 29.3334 15.9998 29.3334C14.2489 29.3334 12.5151 28.9885 10.8974 28.3184C9.27972 27.6484 7.80986 26.6662 6.57175 25.4281C4.07126 22.9276 2.6665 19.5362 2.6665 16C2.6665 12.4638 4.07126 9.07241 6.57175 6.57193C9.07223 4.07144 12.4636 2.66669 15.9998 2.66669ZM10.6665 10.28V14.7334L20.1865 16L10.6665 17.2667V21.72L23.9998 16L10.6665 10.28Z" fill="#E65C4F"/>
</svg>
