<svg width="25" height="24" viewBox="0 0 25 24" fill="none" xmlns="http://www.w3.org/2000/svg">
<path d="M17.5 3H5.5C4.96957 3 4.46086 3.21071 4.08579 3.58579C3.71071 3.96086 3.5 4.46957 3.5 5V19C3.5 19.5304 3.71071 20.0391 4.08579 20.4142C4.46086 20.7893 4.96957 21 5.5 21H13.31C12.95 20.38 12.7 19.7 12.58 19H12.5C10.84 19 9.5 17.66 9.5 16C9.5 14.34 10.84 13 12.5 13C13.18 13 13.84 13.23 14.37 13.65C15.4853 12.5926 16.9631 12.0022 18.5 12C19.55 12 20.59 12.28 21.5 12.81V7L17.5 3ZM15.5 9H5.5V5H15.5V9ZM17.5 14V17H14.5V19H17.5V22H19.5V19H22.5V17H19.5V14H17.5Z" fill="black"/>
</svg>
