<svg width="24" height="24" viewBox="0 0 24 24" fill="none" xmlns="http://www.w3.org/2000/svg">
<path d="M21 16V19C21 20.657 16.97 22 12 22C7.03 22 3 20.657 3 19V16C3 17.657 7.03 19 12 19C16.97 19 21 17.657 21 16ZM12 15C7.03 15 3 13.657 3 12V15C3 16.657 7.03 18 12 18C16.97 18 21 16.657 21 15V12C21 13.657 16.97 15 12 15ZM12 2C7.03 2 3 3.343 3 5V7C3 8.657 7.03 10 12 10C16.97 10 21 8.657 21 7V5C21 3.343 16.97 2 12 2ZM12 11C7.03 11 3 9.657 3 8V11C3 12.657 7.03 14 12 14C16.97 14 21 12.657 21 11V8C21 9.657 16.97 11 12 11Z" fill="#252525"/>
</svg>
