<svg width="80" height="89" viewBox="0 0 80 89" fill="none" xmlns="http://www.w3.org/2000/svg">
<path d="M37.3333 38V34H28L34.6667 27.3333H30.6667L37.3333 20.6667H33.3333L40 14L46.6667 20.6667H42.6667L49.3333 27.3333H45.3333L52 34H42.6667V38H37.3333Z" fill="white"/>
<path d="M13.1816 62.2031V75H11.4854V62.2031H13.1816ZM18.543 67.96V69.3486H12.8125V67.96H18.543ZM19.4131 62.2031V63.5918H12.8125V62.2031H19.4131ZM20.5645 70.3506V70.1484C20.5645 69.4629 20.6641 68.8271 20.8633 68.2412C21.0625 67.6494 21.3496 67.1367 21.7246 66.7031C22.0996 66.2637 22.5537 65.9238 23.0869 65.6836C23.6201 65.4375 24.2178 65.3145 24.8799 65.3145C25.5479 65.3145 26.1484 65.4375 26.6816 65.6836C27.2207 65.9238 27.6777 66.2637 28.0527 66.7031C28.4336 67.1367 28.7236 67.6494 28.9229 68.2412C29.1221 68.8271 29.2217 69.4629 29.2217 70.1484V70.3506C29.2217 71.0361 29.1221 71.6719 28.9229 72.2578C28.7236 72.8438 28.4336 73.3564 28.0527 73.7959C27.6777 74.2295 27.2236 74.5693 26.6904 74.8154C26.1631 75.0557 25.5654 75.1758 24.8975 75.1758C24.2295 75.1758 23.6289 75.0557 23.0957 74.8154C22.5625 74.5693 22.1055 74.2295 21.7246 73.7959C21.3496 73.3564 21.0625 72.8438 20.8633 72.2578C20.6641 71.6719 20.5645 71.0361 20.5645 70.3506ZM22.1904 70.1484V70.3506C22.1904 70.8252 22.2461 71.2734 22.3574 71.6953C22.4688 72.1113 22.6357 72.4805 22.8584 72.8027C23.0869 73.125 23.3711 73.3799 23.7109 73.5674C24.0508 73.749 24.4463 73.8398 24.8975 73.8398C25.3428 73.8398 25.7324 73.749 26.0664 73.5674C26.4062 73.3799 26.6875 73.125 26.9102 72.8027C27.1328 72.4805 27.2998 72.1113 27.4111 71.6953C27.5283 71.2734 27.5869 70.8252 27.5869 70.3506V70.1484C27.5869 69.6797 27.5283 69.2373 27.4111 68.8213C27.2998 68.3994 27.1299 68.0273 26.9014 67.7051C26.6787 67.377 26.3975 67.1191 26.0576 66.9316C25.7236 66.7441 25.3311 66.6504 24.8799 66.6504C24.4346 66.6504 24.042 66.7441 23.7021 66.9316C23.3682 67.1191 23.0869 67.377 22.8584 67.7051C22.6357 68.0273 22.4688 68.3994 22.3574 68.8213C22.2461 69.2373 22.1904 69.6797 22.1904 70.1484ZM32.8867 66.9844V75H31.2607V65.4902H32.8428L32.8867 66.9844ZM35.8574 65.4375L35.8486 66.9492C35.7139 66.9199 35.585 66.9023 35.4619 66.8965C35.3447 66.8848 35.21 66.8789 35.0576 66.8789C34.6826 66.8789 34.3516 66.9375 34.0645 67.0547C33.7773 67.1719 33.5342 67.3359 33.335 67.5469C33.1357 67.7578 32.9775 68.0098 32.8604 68.3027C32.749 68.5898 32.6758 68.9062 32.6406 69.252L32.1836 69.5156C32.1836 68.9414 32.2393 68.4023 32.3506 67.8984C32.4678 67.3945 32.6465 66.9492 32.8867 66.5625C33.127 66.1699 33.4316 65.8652 33.8008 65.6484C34.1758 65.4258 34.6211 65.3145 35.1367 65.3145C35.2539 65.3145 35.3887 65.3291 35.541 65.3584C35.6934 65.3818 35.7988 65.4082 35.8574 65.4375ZM41.1309 75.1758C40.4688 75.1758 39.8682 75.0645 39.3291 74.8418C38.7959 74.6133 38.3359 74.2939 37.9492 73.8838C37.5684 73.4736 37.2754 72.9873 37.0703 72.4248C36.8652 71.8623 36.7627 71.2471 36.7627 70.5791V70.21C36.7627 69.4365 36.877 68.748 37.1055 68.1445C37.334 67.5352 37.6445 67.0195 38.0371 66.5977C38.4297 66.1758 38.875 65.8564 39.373 65.6396C39.8711 65.4229 40.3867 65.3145 40.9199 65.3145C41.5996 65.3145 42.1855 65.4316 42.6777 65.666C43.1758 65.9004 43.583 66.2285 43.8994 66.6504C44.2158 67.0664 44.4502 67.5586 44.6025 68.127C44.7549 68.6895 44.8311 69.3047 44.8311 69.9727V70.7021H37.7295V69.375H43.2051V69.252C43.1816 68.8301 43.0938 68.4199 42.9414 68.0215C42.7949 67.623 42.5605 67.2949 42.2383 67.0371C41.916 66.7793 41.4766 66.6504 40.9199 66.6504C40.5508 66.6504 40.2109 66.7295 39.9004 66.8877C39.5898 67.04 39.3232 67.2686 39.1006 67.5732C38.8779 67.8779 38.7051 68.25 38.582 68.6895C38.459 69.1289 38.3975 69.6357 38.3975 70.21V70.5791C38.3975 71.0303 38.459 71.4551 38.582 71.8535C38.7109 72.2461 38.8955 72.5918 39.1357 72.8906C39.3818 73.1895 39.6777 73.4238 40.0234 73.5938C40.375 73.7637 40.7734 73.8486 41.2188 73.8486C41.793 73.8486 42.2793 73.7314 42.6777 73.4971C43.0762 73.2627 43.4248 72.9492 43.7236 72.5566L44.708 73.3389C44.5029 73.6494 44.2422 73.9453 43.9258 74.2266C43.6094 74.5078 43.2197 74.7363 42.7568 74.9121C42.2998 75.0879 41.7578 75.1758 41.1309 75.1758ZM52.2666 72.4775C52.2666 72.2432 52.2139 72.0264 52.1084 71.8271C52.0088 71.6221 51.8008 71.4375 51.4844 71.2734C51.1738 71.1035 50.7051 70.957 50.0781 70.834C49.5508 70.7227 49.0732 70.5908 48.6455 70.4385C48.2236 70.2861 47.8633 70.1016 47.5645 69.8848C47.2715 69.668 47.0459 69.4131 46.8877 69.1201C46.7295 68.8271 46.6504 68.4844 46.6504 68.0918C46.6504 67.7168 46.7324 67.3623 46.8965 67.0283C47.0664 66.6943 47.3037 66.3984 47.6084 66.1406C47.9189 65.8828 48.291 65.6807 48.7246 65.5342C49.1582 65.3877 49.6416 65.3145 50.1748 65.3145C50.9365 65.3145 51.5869 65.4492 52.126 65.7188C52.665 65.9883 53.0781 66.3486 53.3652 66.7998C53.6523 67.2451 53.7959 67.7402 53.7959 68.2852H52.1699C52.1699 68.0215 52.0908 67.7666 51.9326 67.5205C51.7803 67.2686 51.5547 67.0605 51.2559 66.8965C50.9629 66.7324 50.6025 66.6504 50.1748 66.6504C49.7236 66.6504 49.3574 66.7207 49.0762 66.8613C48.8008 66.9961 48.5986 67.1689 48.4697 67.3799C48.3467 67.5908 48.2852 67.8135 48.2852 68.0479C48.2852 68.2236 48.3145 68.3818 48.373 68.5225C48.4375 68.6572 48.5488 68.7832 48.707 68.9004C48.8652 69.0117 49.0879 69.1172 49.375 69.2168C49.6621 69.3164 50.0283 69.416 50.4736 69.5156C51.2529 69.6914 51.8945 69.9023 52.3984 70.1484C52.9023 70.3945 53.2773 70.6963 53.5234 71.0537C53.7695 71.4111 53.8926 71.8447 53.8926 72.3545C53.8926 72.7705 53.8047 73.1514 53.6289 73.4971C53.459 73.8428 53.21 74.1416 52.8818 74.3936C52.5596 74.6396 52.1729 74.833 51.7217 74.9736C51.2764 75.1084 50.7754 75.1758 50.2188 75.1758C49.3809 75.1758 48.6719 75.0264 48.0918 74.7275C47.5117 74.4287 47.0723 74.042 46.7734 73.5674C46.4746 73.0928 46.3252 72.5918 46.3252 72.0645H47.96C47.9834 72.5098 48.1123 72.8643 48.3467 73.1279C48.5811 73.3857 48.8682 73.5703 49.208 73.6816C49.5479 73.7871 49.8848 73.8398 50.2188 73.8398C50.6641 73.8398 51.0361 73.7812 51.335 73.6641C51.6396 73.5469 51.8711 73.3857 52.0293 73.1807C52.1875 72.9756 52.2666 72.7412 52.2666 72.4775ZM60.0098 65.4902V66.7383H54.8682V65.4902H60.0098ZM56.6084 63.1787H58.2344V72.6445C58.2344 72.9668 58.2842 73.21 58.3838 73.374C58.4834 73.5381 58.6123 73.6465 58.7705 73.6992C58.9287 73.752 59.0986 73.7783 59.2803 73.7783C59.415 73.7783 59.5557 73.7666 59.7021 73.7432C59.8545 73.7139 59.9688 73.6904 60.0449 73.6729L60.0537 75C59.9248 75.041 59.7549 75.0791 59.5439 75.1143C59.3389 75.1553 59.0898 75.1758 58.7969 75.1758C58.3984 75.1758 58.0322 75.0967 57.6982 74.9385C57.3643 74.7803 57.0977 74.5166 56.8984 74.1475C56.7051 73.7725 56.6084 73.2686 56.6084 72.6357V63.1787ZM67.4541 72.4775C67.4541 72.2432 67.4014 72.0264 67.2959 71.8271C67.1963 71.6221 66.9883 71.4375 66.6719 71.2734C66.3613 71.1035 65.8926 70.957 65.2656 70.834C64.7383 70.7227 64.2607 70.5908 63.833 70.4385C63.4111 70.2861 63.0508 70.1016 62.752 69.8848C62.459 69.668 62.2334 69.4131 62.0752 69.1201C61.917 68.8271 61.8379 68.4844 61.8379 68.0918C61.8379 67.7168 61.9199 67.3623 62.084 67.0283C62.2539 66.6943 62.4912 66.3984 62.7959 66.1406C63.1064 65.8828 63.4785 65.6807 63.9121 65.5342C64.3457 65.3877 64.8291 65.3145 65.3623 65.3145C66.124 65.3145 66.7744 65.4492 67.3135 65.7188C67.8525 65.9883 68.2656 66.3486 68.5527 66.7998C68.8398 67.2451 68.9834 67.7402 68.9834 68.2852H67.3574C67.3574 68.0215 67.2783 67.7666 67.1201 67.5205C66.9678 67.2686 66.7422 67.0605 66.4434 66.8965C66.1504 66.7324 65.79 66.6504 65.3623 66.6504C64.9111 66.6504 64.5449 66.7207 64.2637 66.8613C63.9883 66.9961 63.7861 67.1689 63.6572 67.3799C63.5342 67.5908 63.4727 67.8135 63.4727 68.0479C63.4727 68.2236 63.502 68.3818 63.5605 68.5225C63.625 68.6572 63.7363 68.7832 63.8945 68.9004C64.0527 69.0117 64.2754 69.1172 64.5625 69.2168C64.8496 69.3164 65.2158 69.416 65.6611 69.5156C66.4404 69.6914 67.082 69.9023 67.5859 70.1484C68.0898 70.3945 68.4648 70.6963 68.7109 71.0537C68.957 71.4111 69.0801 71.8447 69.0801 72.3545C69.0801 72.7705 68.9922 73.1514 68.8164 73.4971C68.6465 73.8428 68.3975 74.1416 68.0693 74.3936C67.7471 74.6396 67.3604 74.833 66.9092 74.9736C66.4639 75.1084 65.9629 75.1758 65.4062 75.1758C64.5684 75.1758 63.8594 75.0264 63.2793 74.7275C62.6992 74.4287 62.2598 74.042 61.9609 73.5674C61.6621 73.0928 61.5127 72.5918 61.5127 72.0645H63.1475C63.1709 72.5098 63.2998 72.8643 63.5342 73.1279C63.7686 73.3857 64.0557 73.5703 64.3955 73.6816C64.7354 73.7871 65.0723 73.8398 65.4062 73.8398C65.8516 73.8398 66.2236 73.7812 66.5225 73.6641C66.8271 73.5469 67.0586 73.3857 67.2168 73.1807C67.375 72.9756 67.4541 72.7412 67.4541 72.4775Z" fill="white"/>
</svg>
