<svg width="78" height="89" viewBox="0 0 78 89" fill="none" xmlns="http://www.w3.org/2000/svg">
<path d="M36.3333 38V34H27L33.6667 27.3333H29.6667L36.3333 20.6667H32.3333L39 14L45.6667 20.6667H41.6667L48.3333 27.3333H44.3333L51 34H41.6667V38H36.3333Z" fill="white"/>
<path d="M20.9424 68.6279V73.3125C20.7842 73.5469 20.5322 73.8105 20.1865 74.1035C19.8408 74.3906 19.3633 74.6426 18.7539 74.8594C18.1504 75.0703 17.3711 75.1758 16.416 75.1758C15.6367 75.1758 14.9189 75.041 14.2627 74.7715C13.6123 74.4961 13.0469 74.0977 12.5664 73.5762C12.0918 73.0488 11.7227 72.4102 11.459 71.6602C11.2012 70.9043 11.0723 70.0488 11.0723 69.0938V68.1006C11.0723 67.1455 11.1836 66.293 11.4062 65.543C11.6348 64.793 11.9688 64.1572 12.4082 63.6357C12.8477 63.1084 13.3867 62.71 14.0254 62.4404C14.6641 62.165 15.3965 62.0273 16.2227 62.0273C17.2012 62.0273 18.0186 62.1973 18.6748 62.5371C19.3369 62.8711 19.8525 63.334 20.2217 63.9258C20.5967 64.5176 20.8369 65.1914 20.9424 65.9473H19.2461C19.1699 65.4844 19.0176 65.0625 18.7891 64.6816C18.5664 64.3008 18.2471 63.9961 17.8311 63.7676C17.415 63.5332 16.8789 63.416 16.2227 63.416C15.6309 63.416 15.1182 63.5244 14.6846 63.7412C14.251 63.958 13.8936 64.2686 13.6123 64.6729C13.3311 65.0771 13.1201 65.5664 12.9795 66.1406C12.8447 66.7148 12.7773 67.3623 12.7773 68.083V69.0938C12.7773 69.832 12.8623 70.4912 13.0322 71.0713C13.208 71.6514 13.457 72.1465 13.7793 72.5566C14.1016 72.9609 14.4854 73.2686 14.9307 73.4795C15.3818 73.6904 15.8799 73.7959 16.4248 73.7959C17.0283 73.7959 17.5176 73.7461 17.8926 73.6465C18.2676 73.541 18.5605 73.418 18.7715 73.2773C18.9824 73.1309 19.1436 72.9932 19.2549 72.8643V69.999H16.293V68.6279H20.9424ZM23.0781 70.3506V70.1484C23.0781 69.4629 23.1777 68.8271 23.377 68.2412C23.5762 67.6494 23.8633 67.1367 24.2383 66.7031C24.6133 66.2637 25.0674 65.9238 25.6006 65.6836C26.1338 65.4375 26.7314 65.3145 27.3936 65.3145C28.0615 65.3145 28.6621 65.4375 29.1953 65.6836C29.7344 65.9238 30.1914 66.2637 30.5664 66.7031C30.9473 67.1367 31.2373 67.6494 31.4365 68.2412C31.6357 68.8271 31.7354 69.4629 31.7354 70.1484V70.3506C31.7354 71.0361 31.6357 71.6719 31.4365 72.2578C31.2373 72.8438 30.9473 73.3564 30.5664 73.7959C30.1914 74.2295 29.7373 74.5693 29.2041 74.8154C28.6768 75.0557 28.0791 75.1758 27.4111 75.1758C26.7432 75.1758 26.1426 75.0557 25.6094 74.8154C25.0762 74.5693 24.6191 74.2295 24.2383 73.7959C23.8633 73.3564 23.5762 72.8438 23.377 72.2578C23.1777 71.6719 23.0781 71.0361 23.0781 70.3506ZM24.7041 70.1484V70.3506C24.7041 70.8252 24.7598 71.2734 24.8711 71.6953C24.9824 72.1113 25.1494 72.4805 25.3721 72.8027C25.6006 73.125 25.8848 73.3799 26.2246 73.5674C26.5645 73.749 26.96 73.8398 27.4111 73.8398C27.8564 73.8398 28.2461 73.749 28.5801 73.5674C28.9199 73.3799 29.2012 73.125 29.4238 72.8027C29.6465 72.4805 29.8135 72.1113 29.9248 71.6953C30.042 71.2734 30.1006 70.8252 30.1006 70.3506V70.1484C30.1006 69.6797 30.042 69.2373 29.9248 68.8213C29.8135 68.3994 29.6436 68.0273 29.415 67.7051C29.1924 67.377 28.9111 67.1191 28.5713 66.9316C28.2373 66.7441 27.8447 66.6504 27.3936 66.6504C26.9482 66.6504 26.5557 66.7441 26.2158 66.9316C25.8818 67.1191 25.6006 67.377 25.3721 67.7051C25.1494 68.0273 24.9824 68.3994 24.8711 68.8213C24.7598 69.2373 24.7041 69.6797 24.7041 70.1484ZM35.4004 66.9844V75H33.7744V65.4902H35.3564L35.4004 66.9844ZM38.3711 65.4375L38.3623 66.9492C38.2275 66.9199 38.0986 66.9023 37.9756 66.8965C37.8584 66.8848 37.7236 66.8789 37.5713 66.8789C37.1963 66.8789 36.8652 66.9375 36.5781 67.0547C36.291 67.1719 36.0479 67.3359 35.8486 67.5469C35.6494 67.7578 35.4912 68.0098 35.374 68.3027C35.2627 68.5898 35.1895 68.9062 35.1543 69.252L34.6973 69.5156C34.6973 68.9414 34.7529 68.4023 34.8643 67.8984C34.9814 67.3945 35.1602 66.9492 35.4004 66.5625C35.6406 66.1699 35.9453 65.8652 36.3145 65.6484C36.6895 65.4258 37.1348 65.3145 37.6504 65.3145C37.7676 65.3145 37.9023 65.3291 38.0547 65.3584C38.207 65.3818 38.3125 65.4082 38.3711 65.4375ZM45.8594 65.4902H47.3359V74.7979C47.3359 75.6357 47.166 76.3506 46.8262 76.9424C46.4863 77.5342 46.0117 77.9824 45.4023 78.2871C44.7988 78.5977 44.1016 78.7529 43.3105 78.7529C42.9824 78.7529 42.5957 78.7002 42.1504 78.5947C41.7109 78.4951 41.2773 78.3223 40.8496 78.0762C40.4277 77.8359 40.0732 77.5107 39.7861 77.1006L40.6387 76.1338C41.0371 76.6143 41.4531 76.9482 41.8867 77.1357C42.3262 77.3232 42.7598 77.417 43.1875 77.417C43.7031 77.417 44.1484 77.3203 44.5234 77.127C44.8984 76.9336 45.1885 76.6465 45.3936 76.2656C45.6045 75.8906 45.71 75.4277 45.71 74.877V67.582L45.8594 65.4902ZM39.3115 70.3506V70.166C39.3115 69.4395 39.3965 68.7803 39.5664 68.1885C39.7422 67.5908 39.9912 67.0781 40.3135 66.6504C40.6416 66.2227 41.0371 65.8945 41.5 65.666C41.9629 65.4316 42.4844 65.3145 43.0645 65.3145C43.6621 65.3145 44.1836 65.4199 44.6289 65.6309C45.0801 65.8359 45.4609 66.1377 45.7715 66.5361C46.0879 66.9287 46.3369 67.4033 46.5186 67.96C46.7002 68.5166 46.8262 69.1465 46.8965 69.8496V70.6582C46.832 71.3555 46.7061 71.9824 46.5186 72.5391C46.3369 73.0957 46.0879 73.5703 45.7715 73.9629C45.4609 74.3555 45.0801 74.6572 44.6289 74.8682C44.1777 75.0732 43.6504 75.1758 43.0469 75.1758C42.4785 75.1758 41.9629 75.0557 41.5 74.8154C41.043 74.5752 40.6504 74.2383 40.3223 73.8047C39.9941 73.3711 39.7422 72.8613 39.5664 72.2754C39.3965 71.6836 39.3115 71.042 39.3115 70.3506ZM40.9375 70.166V70.3506C40.9375 70.8252 40.9844 71.2705 41.0781 71.6865C41.1777 72.1025 41.3271 72.4688 41.5264 72.7852C41.7314 73.1016 41.9922 73.3506 42.3086 73.5322C42.625 73.708 43.0029 73.7959 43.4424 73.7959C43.9814 73.7959 44.4268 73.6816 44.7783 73.4531C45.1299 73.2246 45.4082 72.9229 45.6133 72.5479C45.8242 72.1729 45.9883 71.7656 46.1055 71.3262V69.208C46.041 68.8857 45.9414 68.5752 45.8066 68.2764C45.6777 67.9717 45.5078 67.7021 45.2969 67.4678C45.0918 67.2275 44.8369 67.0371 44.5322 66.8965C44.2275 66.7559 43.8701 66.6855 43.46 66.6855C43.0146 66.6855 42.6309 66.7793 42.3086 66.9668C41.9922 67.1484 41.7314 67.4004 41.5264 67.7227C41.3271 68.0391 41.1777 68.4082 41.0781 68.8301C40.9844 69.2461 40.9375 69.6914 40.9375 70.166ZM53.752 75.1758C53.0898 75.1758 52.4893 75.0645 51.9502 74.8418C51.417 74.6133 50.957 74.2939 50.5703 73.8838C50.1895 73.4736 49.8965 72.9873 49.6914 72.4248C49.4863 71.8623 49.3838 71.2471 49.3838 70.5791V70.21C49.3838 69.4365 49.498 68.748 49.7266 68.1445C49.9551 67.5352 50.2656 67.0195 50.6582 66.5977C51.0508 66.1758 51.4961 65.8564 51.9941 65.6396C52.4922 65.4229 53.0078 65.3145 53.541 65.3145C54.2207 65.3145 54.8066 65.4316 55.2988 65.666C55.7969 65.9004 56.2041 66.2285 56.5205 66.6504C56.8369 67.0664 57.0713 67.5586 57.2236 68.127C57.376 68.6895 57.4521 69.3047 57.4521 69.9727V70.7021H50.3506V69.375H55.8262V69.252C55.8027 68.8301 55.7148 68.4199 55.5625 68.0215C55.416 67.623 55.1816 67.2949 54.8594 67.0371C54.5371 66.7793 54.0977 66.6504 53.541 66.6504C53.1719 66.6504 52.832 66.7295 52.5215 66.8877C52.2109 67.04 51.9443 67.2686 51.7217 67.5732C51.499 67.8779 51.3262 68.25 51.2031 68.6895C51.0801 69.1289 51.0186 69.6357 51.0186 70.21V70.5791C51.0186 71.0303 51.0801 71.4551 51.2031 71.8535C51.332 72.2461 51.5166 72.5918 51.7568 72.8906C52.0029 73.1895 52.2988 73.4238 52.6445 73.5938C52.9961 73.7637 53.3945 73.8486 53.8398 73.8486C54.4141 73.8486 54.9004 73.7314 55.2988 73.4971C55.6973 73.2627 56.0459 72.9492 56.3447 72.5566L57.3291 73.3389C57.124 73.6494 56.8633 73.9453 56.5469 74.2266C56.2305 74.5078 55.8408 74.7363 55.3779 74.9121C54.9209 75.0879 54.3789 75.1758 53.752 75.1758ZM64.8877 72.4775C64.8877 72.2432 64.835 72.0264 64.7295 71.8271C64.6299 71.6221 64.4219 71.4375 64.1055 71.2734C63.7949 71.1035 63.3262 70.957 62.6992 70.834C62.1719 70.7227 61.6943 70.5908 61.2666 70.4385C60.8447 70.2861 60.4844 70.1016 60.1855 69.8848C59.8926 69.668 59.667 69.4131 59.5088 69.1201C59.3506 68.8271 59.2715 68.4844 59.2715 68.0918C59.2715 67.7168 59.3535 67.3623 59.5176 67.0283C59.6875 66.6943 59.9248 66.3984 60.2295 66.1406C60.54 65.8828 60.9121 65.6807 61.3457 65.5342C61.7793 65.3877 62.2627 65.3145 62.7959 65.3145C63.5576 65.3145 64.208 65.4492 64.7471 65.7188C65.2861 65.9883 65.6992 66.3486 65.9863 66.7998C66.2734 67.2451 66.417 67.7402 66.417 68.2852H64.791C64.791 68.0215 64.7119 67.7666 64.5537 67.5205C64.4014 67.2686 64.1758 67.0605 63.877 66.8965C63.584 66.7324 63.2236 66.6504 62.7959 66.6504C62.3447 66.6504 61.9785 66.7207 61.6973 66.8613C61.4219 66.9961 61.2197 67.1689 61.0908 67.3799C60.9678 67.5908 60.9062 67.8135 60.9062 68.0479C60.9062 68.2236 60.9355 68.3818 60.9941 68.5225C61.0586 68.6572 61.1699 68.7832 61.3281 68.9004C61.4863 69.0117 61.709 69.1172 61.9961 69.2168C62.2832 69.3164 62.6494 69.416 63.0947 69.5156C63.874 69.6914 64.5156 69.9023 65.0195 70.1484C65.5234 70.3945 65.8984 70.6963 66.1445 71.0537C66.3906 71.4111 66.5137 71.8447 66.5137 72.3545C66.5137 72.7705 66.4258 73.1514 66.25 73.4971C66.0801 73.8428 65.8311 74.1416 65.5029 74.3936C65.1807 74.6396 64.7939 74.833 64.3428 74.9736C63.8975 75.1084 63.3965 75.1758 62.8398 75.1758C62.002 75.1758 61.293 75.0264 60.7129 74.7275C60.1328 74.4287 59.6934 74.042 59.3945 73.5674C59.0957 73.0928 58.9463 72.5918 58.9463 72.0645H60.5811C60.6045 72.5098 60.7334 72.8643 60.9678 73.1279C61.2021 73.3857 61.4893 73.5703 61.8291 73.6816C62.1689 73.7871 62.5059 73.8398 62.8398 73.8398C63.2852 73.8398 63.6572 73.7812 63.9561 73.6641C64.2607 73.5469 64.4922 73.3857 64.6504 73.1807C64.8086 72.9756 64.8877 72.7412 64.8877 72.4775Z" fill="white"/>
</svg>
