<svg width="71" height="89" viewBox="0 0 71 89" fill="none" xmlns="http://www.w3.org/2000/svg">
<path d="M42.7928 21.5602H44.8328V40.6668H42.7928V26.8002C41.7261 26.5868 40.7261 26.1868 39.7794 25.6135C38.8328 25.0402 38.0328 24.3735 37.3528 23.6002L36.5261 27.6935L39.4994 30.6268V40.6668H36.8328V32.6668L33.8461 29.7335L31.3528 40.6668H28.4728C28.4728 40.6668 32.6461 19.6268 32.6861 19.4535C32.8328 18.8135 33.1261 18.3202 33.6194 18.0002C34.1128 17.6402 34.6061 17.4668 35.1128 17.4668C35.6328 17.4668 36.1128 17.5868 36.5528 17.8268C37.0061 18.0535 37.3528 18.3868 37.6061 18.8135L39.0194 20.9868C39.4061 21.7068 39.9261 22.3335 40.5794 22.8402C41.2328 23.3468 41.9794 23.7335 42.7928 24.0002V21.5602ZM30.8994 17.8535L29.3661 17.5335C28.6061 17.3335 27.9128 17.4935 27.2861 17.9202C26.6728 18.3468 26.2994 18.9335 26.1661 19.7068L25.0861 25.0135C25.0461 25.4002 25.1261 25.7468 25.3394 26.0668C25.5528 26.3868 25.8328 26.5602 26.1661 26.6135L29.1128 27.1868L30.8994 17.8535ZM36.8328 11.3335C35.3661 11.3335 34.1661 12.5335 34.1661 14.0002C34.1661 15.4668 35.3661 16.6668 36.8328 16.6668C38.2994 16.6668 39.4994 15.4802 39.4994 14.0002C39.4994 12.5202 38.3128 11.3335 36.8328 11.3335Z" fill="white"/>
<path d="M19.8438 67.7051V69.085H12.918V67.7051H19.8438ZM13.1816 62.2031V75H11.4854V62.2031H13.1816ZM21.3203 62.2031V75H19.6328V62.2031H21.3203ZM25.8555 65.4902V75H24.2207V65.4902H25.8555ZM24.0977 62.9678C24.0977 62.7041 24.1768 62.4814 24.335 62.2998C24.499 62.1182 24.7393 62.0273 25.0557 62.0273C25.3662 62.0273 25.6035 62.1182 25.7676 62.2998C25.9375 62.4814 26.0225 62.7041 26.0225 62.9678C26.0225 63.2197 25.9375 63.4365 25.7676 63.6182C25.6035 63.7939 25.3662 63.8818 25.0557 63.8818C24.7393 63.8818 24.499 63.7939 24.335 63.6182C24.1768 63.4365 24.0977 63.2197 24.0977 62.9678ZM30.1006 61.5V75H28.4658V61.5H30.1006ZM35.9102 65.4902L31.7617 69.9287L29.4414 72.3369L29.3096 70.6055L30.9707 68.6191L33.9238 65.4902H35.9102ZM34.4248 75L31.0322 70.4648L31.876 69.0146L36.3408 75H34.4248ZM39.3555 65.4902V75H37.7207V65.4902H39.3555ZM37.5977 62.9678C37.5977 62.7041 37.6768 62.4814 37.835 62.2998C37.999 62.1182 38.2393 62.0273 38.5557 62.0273C38.8662 62.0273 39.1035 62.1182 39.2676 62.2998C39.4375 62.4814 39.5225 62.7041 39.5225 62.9678C39.5225 63.2197 39.4375 63.4365 39.2676 63.6182C39.1035 63.7939 38.8662 63.8818 38.5557 63.8818C38.2393 63.8818 37.999 63.7939 37.835 63.6182C37.6768 63.4365 37.5977 63.2197 37.5977 62.9678ZM43.5918 67.5205V75H41.9658V65.4902H43.5039L43.5918 67.5205ZM43.2051 69.8848L42.5283 69.8584C42.5342 69.208 42.6309 68.6074 42.8184 68.0566C43.0059 67.5 43.2695 67.0166 43.6094 66.6064C43.9492 66.1963 44.3535 65.8799 44.8223 65.6572C45.2969 65.4287 45.8213 65.3145 46.3955 65.3145C46.8643 65.3145 47.2861 65.3789 47.6611 65.5078C48.0361 65.6309 48.3555 65.8301 48.6191 66.1055C48.8887 66.3809 49.0938 66.7383 49.2344 67.1777C49.375 67.6113 49.4453 68.1416 49.4453 68.7686V75H47.8105V68.751C47.8105 68.2529 47.7373 67.8545 47.5908 67.5557C47.4443 67.251 47.2305 67.0312 46.9492 66.8965C46.668 66.7559 46.3223 66.6855 45.9121 66.6855C45.5078 66.6855 45.1387 66.7705 44.8047 66.9404C44.4766 67.1104 44.1924 67.3447 43.9521 67.6436C43.7178 67.9424 43.5332 68.2852 43.3984 68.6719C43.2695 69.0527 43.2051 69.457 43.2051 69.8848ZM58.0762 65.4902H59.5527V74.7979C59.5527 75.6357 59.3828 76.3506 59.043 76.9424C58.7031 77.5342 58.2285 77.9824 57.6191 78.2871C57.0156 78.5977 56.3184 78.7529 55.5273 78.7529C55.1992 78.7529 54.8125 78.7002 54.3672 78.5947C53.9277 78.4951 53.4941 78.3223 53.0664 78.0762C52.6445 77.8359 52.29 77.5107 52.0029 77.1006L52.8555 76.1338C53.2539 76.6143 53.6699 76.9482 54.1035 77.1357C54.543 77.3232 54.9766 77.417 55.4043 77.417C55.9199 77.417 56.3652 77.3203 56.7402 77.127C57.1152 76.9336 57.4053 76.6465 57.6104 76.2656C57.8213 75.8906 57.9268 75.4277 57.9268 74.877V67.582L58.0762 65.4902ZM51.5283 70.3506V70.166C51.5283 69.4395 51.6133 68.7803 51.7832 68.1885C51.959 67.5908 52.208 67.0781 52.5303 66.6504C52.8584 66.2227 53.2539 65.8945 53.7168 65.666C54.1797 65.4316 54.7012 65.3145 55.2812 65.3145C55.8789 65.3145 56.4004 65.4199 56.8457 65.6309C57.2969 65.8359 57.6777 66.1377 57.9883 66.5361C58.3047 66.9287 58.5537 67.4033 58.7354 67.96C58.917 68.5166 59.043 69.1465 59.1133 69.8496V70.6582C59.0488 71.3555 58.9229 71.9824 58.7354 72.5391C58.5537 73.0957 58.3047 73.5703 57.9883 73.9629C57.6777 74.3555 57.2969 74.6572 56.8457 74.8682C56.3945 75.0732 55.8672 75.1758 55.2637 75.1758C54.6953 75.1758 54.1797 75.0557 53.7168 74.8154C53.2598 74.5752 52.8672 74.2383 52.5391 73.8047C52.2109 73.3711 51.959 72.8613 51.7832 72.2754C51.6133 71.6836 51.5283 71.042 51.5283 70.3506ZM53.1543 70.166V70.3506C53.1543 70.8252 53.2012 71.2705 53.2949 71.6865C53.3945 72.1025 53.5439 72.4688 53.7432 72.7852C53.9482 73.1016 54.209 73.3506 54.5254 73.5322C54.8418 73.708 55.2197 73.7959 55.6592 73.7959C56.1982 73.7959 56.6436 73.6816 56.9951 73.4531C57.3467 73.2246 57.625 72.9229 57.8301 72.5479C58.041 72.1729 58.2051 71.7656 58.3223 71.3262V69.208C58.2578 68.8857 58.1582 68.5752 58.0234 68.2764C57.8945 67.9717 57.7246 67.7021 57.5137 67.4678C57.3086 67.2275 57.0537 67.0371 56.749 66.8965C56.4443 66.7559 56.0869 66.6855 55.6768 66.6855C55.2314 66.6855 54.8477 66.7793 54.5254 66.9668C54.209 67.1484 53.9482 67.4004 53.7432 67.7227C53.5439 68.0391 53.3945 68.4082 53.2949 68.8301C53.2012 69.2461 53.1543 69.6914 53.1543 70.166Z" fill="white"/>
</svg>
