<svg width="33" height="32" viewBox="0 0 33 32" fill="none" xmlns="http://www.w3.org/2000/svg">
<path d="M23.7928 11.5602H25.8328V30.6668H23.7928V16.8002C22.7261 16.5868 21.7261 16.1868 20.7794 15.6135C19.8328 15.0402 19.0328 14.3735 18.3528 13.6002L17.5261 17.6935L20.4994 20.6268V30.6668H17.8328V22.6668L14.8461 19.7335L12.3528 30.6668H9.47278C9.47278 30.6668 13.6461 9.62683 13.6861 9.4535C13.8328 8.8135 14.1261 8.32016 14.6194 8.00016C15.1128 7.64016 15.6061 7.46683 16.1128 7.46683C16.6328 7.46683 17.1128 7.58683 17.5528 7.82683C18.0061 8.0535 18.3528 8.38683 18.6061 8.8135L20.0194 10.9868C20.4061 11.7068 20.9261 12.3335 21.5794 12.8402C22.2328 13.3468 22.9794 13.7335 23.7928 14.0002V11.5602ZM11.8994 7.8535L10.3661 7.5335C9.60611 7.3335 8.91278 7.4935 8.28611 7.92016C7.67278 8.34683 7.29944 8.9335 7.16611 9.70683L6.08611 15.0135C6.04611 15.4002 6.12611 15.7468 6.33944 16.0668C6.55278 16.3868 6.83278 16.5602 7.16611 16.6135L10.1128 17.1868L11.8994 7.8535ZM17.8328 1.3335C16.3661 1.3335 15.1661 2.5335 15.1661 4.00016C15.1661 5.46683 16.3661 6.66683 17.8328 6.66683C19.2994 6.66683 20.4994 5.48016 20.4994 4.00016C20.4994 2.52016 19.3128 1.3335 17.8328 1.3335Z" fill="white"/>
</svg>
