<svg width="68" height="89" viewBox="0 0 68 89" fill="none" xmlns="http://www.w3.org/2000/svg">
<path d="M44.666 25.9999H47.3327V28.6666H44.666C42.826 28.6666 41.0127 28.1999 39.3327 27.3332C35.9993 29.0666 31.9993 29.0666 28.666 27.3332C26.986 28.1999 25.1593 28.6666 23.3327 28.6666H20.666V25.9999H23.3327C25.186 25.9999 27.0393 25.3732 28.666 24.2266C31.9193 26.5066 36.0793 26.5066 39.3327 24.2266C40.9593 25.3732 42.8127 25.9999 44.666 25.9999ZM44.666 17.9999H47.3327V20.6666H44.666C42.826 20.6666 41.0127 20.1999 39.3327 19.3332C35.9993 21.0666 31.9993 21.0666 28.666 19.3332C26.986 20.1999 25.1593 20.6666 23.3327 20.6666H20.666V17.9999H23.3327C25.186 17.9999 27.0393 17.3732 28.666 16.2266C31.9193 18.5066 36.0793 18.5066 39.3327 16.2266C40.9593 17.3732 42.8127 17.9999 44.666 17.9999ZM44.666 33.9999H47.3327V36.6666H44.666C42.826 36.6666 41.0127 36.1999 39.3327 35.3332C35.9993 37.0666 31.9993 37.0666 28.666 35.3332C26.986 36.1999 25.1593 36.6666 23.3327 36.6666H20.666V33.9999H23.3327C25.186 33.9999 27.0393 33.3732 28.666 32.2266C31.9193 34.5066 36.0793 34.5066 39.3327 32.2266C40.9593 33.3732 42.8127 33.9999 44.666 33.9999Z" fill="white"/>
<path d="M19.2461 73.6201V75H12.8477V73.6201H19.2461ZM13.1816 62.2031V75H11.4854V62.2031H13.1816ZM26.5498 73.374V68.4785C26.5498 68.1035 26.4736 67.7783 26.3213 67.5029C26.1748 67.2217 25.9521 67.0049 25.6533 66.8525C25.3545 66.7002 24.9854 66.624 24.5459 66.624C24.1357 66.624 23.7754 66.6943 23.4648 66.835C23.1602 66.9756 22.9199 67.1602 22.7441 67.3887C22.5742 67.6172 22.4893 67.8633 22.4893 68.127H20.8633C20.8633 67.7871 20.9512 67.4502 21.127 67.1162C21.3027 66.7822 21.5547 66.4805 21.8828 66.2109C22.2168 65.9355 22.6152 65.7188 23.0781 65.5605C23.5469 65.3965 24.0684 65.3145 24.6426 65.3145C25.334 65.3145 25.9434 65.4316 26.4707 65.666C27.0039 65.9004 27.4199 66.2549 27.7188 66.7295C28.0234 67.1982 28.1758 67.7871 28.1758 68.4961V72.9258C28.1758 73.2422 28.2021 73.5791 28.2549 73.9365C28.3135 74.2939 28.3984 74.6016 28.5098 74.8594V75H26.8135C26.7314 74.8125 26.667 74.5635 26.6201 74.2529C26.5732 73.9365 26.5498 73.6436 26.5498 73.374ZM26.8311 69.2344L26.8486 70.377H25.2051C24.7422 70.377 24.3291 70.415 23.9658 70.4912C23.6025 70.5615 23.2979 70.6699 23.0518 70.8164C22.8057 70.9629 22.6182 71.1475 22.4893 71.3701C22.3604 71.5869 22.2959 71.8418 22.2959 72.1348C22.2959 72.4336 22.3633 72.7061 22.498 72.9521C22.6328 73.1982 22.835 73.3945 23.1045 73.541C23.3799 73.6816 23.7168 73.752 24.1152 73.752C24.6133 73.752 25.0527 73.6465 25.4336 73.4355C25.8145 73.2246 26.1162 72.9668 26.3389 72.6621C26.5674 72.3574 26.6904 72.0615 26.708 71.7744L27.4023 72.5566C27.3613 72.8027 27.25 73.0752 27.0684 73.374C26.8867 73.6729 26.6436 73.96 26.3389 74.2354C26.04 74.5049 25.6826 74.7305 25.2666 74.9121C24.8564 75.0879 24.3936 75.1758 23.8779 75.1758C23.2334 75.1758 22.668 75.0498 22.1816 74.7979C21.7012 74.5459 21.3262 74.209 21.0566 73.7871C20.793 73.3594 20.6611 72.8818 20.6611 72.3545C20.6611 71.8447 20.7607 71.3965 20.96 71.0098C21.1592 70.6172 21.4463 70.292 21.8213 70.0342C22.1963 69.7705 22.6475 69.5713 23.1748 69.4365C23.7021 69.3018 24.291 69.2344 24.9414 69.2344H26.8311ZM32.3682 61.5V75H30.7334V61.5H32.3682ZM38.1777 65.4902L34.0293 69.9287L31.709 72.3369L31.5771 70.6055L33.2383 68.6191L36.1914 65.4902H38.1777ZM36.6924 75L33.2998 70.4648L34.1436 69.0146L38.6084 75H36.6924ZM43.627 75.1758C42.9648 75.1758 42.3643 75.0645 41.8252 74.8418C41.292 74.6133 40.832 74.2939 40.4453 73.8838C40.0645 73.4736 39.7715 72.9873 39.5664 72.4248C39.3613 71.8623 39.2588 71.2471 39.2588 70.5791V70.21C39.2588 69.4365 39.373 68.748 39.6016 68.1445C39.8301 67.5352 40.1406 67.0195 40.5332 66.5977C40.9258 66.1758 41.3711 65.8564 41.8691 65.6396C42.3672 65.4229 42.8828 65.3145 43.416 65.3145C44.0957 65.3145 44.6816 65.4316 45.1738 65.666C45.6719 65.9004 46.0791 66.2285 46.3955 66.6504C46.7119 67.0664 46.9463 67.5586 47.0986 68.127C47.251 68.6895 47.3271 69.3047 47.3271 69.9727V70.7021H40.2256V69.375H45.7012V69.252C45.6777 68.8301 45.5898 68.4199 45.4375 68.0215C45.291 67.623 45.0566 67.2949 44.7344 67.0371C44.4121 66.7793 43.9727 66.6504 43.416 66.6504C43.0469 66.6504 42.707 66.7295 42.3965 66.8877C42.0859 67.04 41.8193 67.2686 41.5967 67.5732C41.374 67.8779 41.2012 68.25 41.0781 68.6895C40.9551 69.1289 40.8936 69.6357 40.8936 70.21V70.5791C40.8936 71.0303 40.9551 71.4551 41.0781 71.8535C41.207 72.2461 41.3916 72.5918 41.6318 72.8906C41.8779 73.1895 42.1738 73.4238 42.5195 73.5938C42.8711 73.7637 43.2695 73.8486 43.7148 73.8486C44.2891 73.8486 44.7754 73.7314 45.1738 73.4971C45.5723 73.2627 45.9209 72.9492 46.2197 72.5566L47.2041 73.3389C46.999 73.6494 46.7383 73.9453 46.4219 74.2266C46.1055 74.5078 45.7158 74.7363 45.2529 74.9121C44.7959 75.0879 44.2539 75.1758 43.627 75.1758ZM54.7627 72.4775C54.7627 72.2432 54.71 72.0264 54.6045 71.8271C54.5049 71.6221 54.2969 71.4375 53.9805 71.2734C53.6699 71.1035 53.2012 70.957 52.5742 70.834C52.0469 70.7227 51.5693 70.5908 51.1416 70.4385C50.7197 70.2861 50.3594 70.1016 50.0605 69.8848C49.7676 69.668 49.542 69.4131 49.3838 69.1201C49.2256 68.8271 49.1465 68.4844 49.1465 68.0918C49.1465 67.7168 49.2285 67.3623 49.3926 67.0283C49.5625 66.6943 49.7998 66.3984 50.1045 66.1406C50.415 65.8828 50.7871 65.6807 51.2207 65.5342C51.6543 65.3877 52.1377 65.3145 52.6709 65.3145C53.4326 65.3145 54.083 65.4492 54.6221 65.7188C55.1611 65.9883 55.5742 66.3486 55.8613 66.7998C56.1484 67.2451 56.292 67.7402 56.292 68.2852H54.666C54.666 68.0215 54.5869 67.7666 54.4287 67.5205C54.2764 67.2686 54.0508 67.0605 53.752 66.8965C53.459 66.7324 53.0986 66.6504 52.6709 66.6504C52.2197 66.6504 51.8535 66.7207 51.5723 66.8613C51.2969 66.9961 51.0947 67.1689 50.9658 67.3799C50.8428 67.5908 50.7812 67.8135 50.7812 68.0479C50.7812 68.2236 50.8105 68.3818 50.8691 68.5225C50.9336 68.6572 51.0449 68.7832 51.2031 68.9004C51.3613 69.0117 51.584 69.1172 51.8711 69.2168C52.1582 69.3164 52.5244 69.416 52.9697 69.5156C53.749 69.6914 54.3906 69.9023 54.8945 70.1484C55.3984 70.3945 55.7734 70.6963 56.0195 71.0537C56.2656 71.4111 56.3887 71.8447 56.3887 72.3545C56.3887 72.7705 56.3008 73.1514 56.125 73.4971C55.9551 73.8428 55.7061 74.1416 55.3779 74.3936C55.0557 74.6396 54.6689 74.833 54.2178 74.9736C53.7725 75.1084 53.2715 75.1758 52.7148 75.1758C51.877 75.1758 51.168 75.0264 50.5879 74.7275C50.0078 74.4287 49.5684 74.042 49.2695 73.5674C48.9707 73.0928 48.8213 72.5918 48.8213 72.0645H50.4561C50.4795 72.5098 50.6084 72.8643 50.8428 73.1279C51.0771 73.3857 51.3643 73.5703 51.7041 73.6816C52.0439 73.7871 52.3809 73.8398 52.7148 73.8398C53.1602 73.8398 53.5322 73.7812 53.8311 73.6641C54.1357 73.5469 54.3672 73.3857 54.5254 73.1807C54.6836 72.9756 54.7627 72.7412 54.7627 72.4775Z" fill="white"/>
</svg>
