<svg width="32" height="60" viewBox="0 0 32 60" fill="none" xmlns="http://www.w3.org/2000/svg">
<path d="M27.61 1.67001L1.7 28.25C1.24493 28.7169 0.990242 29.343 0.990242 29.995C0.990242 30.647 1.24493 31.2731 1.7 31.74L27.61 58.33C27.822 58.5477 28.0754 58.7208 28.3554 58.8389C28.6353 58.9571 28.9361 59.018 29.24 59.018C29.5439 59.018 29.8447 58.9571 30.1246 58.8389C30.4046 58.7208 30.658 58.5477 30.87 58.33C31.3061 57.8835 31.5503 57.2841 31.5503 56.66C31.5503 56.0359 31.3061 55.4365 30.87 54.99L6.505 29.995L30.87 5.00501C31.3046 4.55875 31.5478 3.96043 31.5478 3.33751C31.5478 2.71458 31.3046 2.11627 30.87 1.67001C30.658 1.45229 30.4046 1.27924 30.1246 1.16109C29.8447 1.04293 29.5439 0.982056 29.24 0.982056C28.9361 0.982056 28.6353 1.04293 28.3554 1.16109C28.0754 1.27924 27.822 1.45229 27.61 1.67001Z" fill="#252525"/>
</svg>
