<svg width="149" height="76" viewBox="0 0 149 76" fill="none" xmlns="http://www.w3.org/2000/svg">
<path d="M18.3848 32.7109H20.5469C21.9297 32.7109 22.9785 32.4121 23.6934 31.8145C24.4082 31.2051 24.7656 30.3203 24.7656 29.1602C24.7656 28.0703 24.4082 27.2383 23.6934 26.6641C22.9902 26.0898 21.9648 25.8027 20.6172 25.8027H18.3848V32.7109ZM18.3848 21.5488H19.6152C21.2793 21.5488 22.457 21.3145 23.1484 20.8457C23.8398 20.377 24.1855 19.5918 24.1855 18.4902C24.1855 17.4121 23.8516 16.6445 23.1836 16.1875C22.5273 15.7305 21.373 15.502 19.7207 15.502H18.3848V21.5488ZM12.8828 37V11.2656H17.6992C20.1953 11.2656 22.0176 11.3652 23.166 11.5645C24.3262 11.752 25.3281 12.0684 26.1719 12.5137C27.168 13.0879 27.9355 13.8438 28.4746 14.7812C29.0254 15.7187 29.3008 16.7793 29.3008 17.9629C29.3008 19.4863 28.8496 20.7109 27.9473 21.6367C27.0449 22.5508 25.6973 23.1602 23.9043 23.4648C25.9785 23.7695 27.543 24.4434 28.5977 25.4863C29.6641 26.5293 30.1973 27.918 30.1973 29.6523C30.1973 30.918 29.8926 32.0781 29.2832 33.1328C28.6738 34.1758 27.8359 34.9844 26.7695 35.5586C25.8203 36.0742 24.707 36.4434 23.4297 36.666C22.1523 36.8887 20.0371 37 17.084 37H16.5215H12.8828ZM45.8418 26.5938C45.7012 25.5039 45.3027 24.6836 44.6465 24.1328C44.002 23.5703 43.1172 23.2891 41.9922 23.2891C40.8672 23.2891 39.9648 23.5703 39.2852 24.1328C38.6172 24.6836 38.1895 25.5039 38.002 26.5938H45.8418ZM50.7988 29.6172H37.8438C38.043 30.8594 38.4941 31.791 39.1973 32.4121C39.9004 33.0215 40.8555 33.3262 42.0625 33.3262C42.9766 33.3262 43.7617 33.1504 44.418 32.7988C45.0859 32.4473 45.6426 31.9141 46.0879 31.1992L50.1309 33.2207C49.1934 34.7324 48.0566 35.8574 46.7207 36.5957C45.3848 37.3223 43.7969 37.6855 41.957 37.6855C39.168 37.6855 36.959 36.8535 35.3301 35.1895C33.7012 33.5254 32.8867 31.2871 32.8867 28.4746C32.8867 25.7676 33.7363 23.541 35.4355 21.7949C37.1465 20.0488 39.332 19.1758 41.9922 19.1758C44.7344 19.1758 46.9023 19.9961 48.4961 21.6367C50.0898 23.2656 50.8867 25.4922 50.8867 28.3164C50.8867 28.4688 50.8809 28.6387 50.8691 28.8262C50.8574 29.002 50.834 29.2656 50.7988 29.6172Z" fill="#252525"/>
<path d="M12.8828 65V39.2656H18.5957L29.9863 54.2422C30.3145 54.6641 30.6719 55.2617 31.0586 56.0352C31.457 56.7969 31.8672 57.6992 32.2891 58.7422C32.1602 57.9805 32.0664 57.2246 32.0078 56.4746C31.9492 55.7246 31.9199 54.7871 31.9199 53.6621V39.2656H37.1758V65H31.7793L20.0723 49.7422C19.7441 49.3203 19.3867 48.7285 19 47.9668C18.6133 47.1934 18.2031 46.2734 17.7695 45.207C17.8984 45.9453 17.9922 46.6953 18.0508 47.457C18.1094 48.207 18.1387 49.1562 18.1387 50.3047V65H12.8828ZM55.5098 56.4043C55.5098 54.998 55.0996 53.8789 54.2793 53.0469C53.459 52.2031 52.3574 51.7812 50.9746 51.7812C49.5918 51.7812 48.4961 52.1973 47.6875 53.0293C46.8789 53.8613 46.4746 54.9863 46.4746 56.4043C46.4746 57.8105 46.8789 58.9355 47.6875 59.7793C48.4961 60.623 49.5918 61.0449 50.9746 61.0449C52.3457 61.0449 53.4414 60.623 54.2617 59.7793C55.0938 58.9355 55.5098 57.8105 55.5098 56.4043ZM60.6074 56.4395C60.6074 59.0879 59.6992 61.291 57.8828 63.0488C56.0781 64.8066 53.7871 65.6855 51.0098 65.6855C48.209 65.6855 45.9004 64.8066 44.084 63.0488C42.2676 61.291 41.3594 59.0879 41.3594 56.4395C41.3594 53.8027 42.2734 51.5996 44.1016 49.8301C45.9297 48.0605 48.2324 47.1758 51.0098 47.1758C53.7988 47.1758 56.0957 48.0488 57.9004 49.7949C59.7051 51.541 60.6074 53.7559 60.6074 56.4395ZM69.3438 65H64.334V47.7559H69.3438V50.4629C70.1641 49.3262 71.0371 48.4941 71.9629 47.9668C72.9004 47.4395 73.9609 47.1758 75.1445 47.1758C76.5742 47.1758 77.7344 47.4688 78.625 48.0547C79.5273 48.6406 80.166 49.5254 80.541 50.709C81.3379 49.5371 82.2402 48.6582 83.248 48.0723C84.2676 47.4746 85.3809 47.1758 86.5879 47.1758C87.8066 47.1758 88.8379 47.4043 89.6816 47.8613C90.5371 48.3066 91.1992 48.9805 91.668 49.8828C91.9141 50.375 92.0898 50.9316 92.1953 51.5527C92.3008 52.1738 92.3535 53.1172 92.3535 54.3828V54.9277V65H87.3438V56.4746C87.3438 54.377 87.127 52.9824 86.6934 52.291C86.2715 51.5996 85.5273 51.2539 84.4609 51.2539C83.1719 51.2539 82.2344 51.7344 81.6484 52.6953C81.0742 53.6562 80.7871 55.2266 80.7871 57.4062V65H75.7773V56.4746C75.7773 54.4473 75.5781 53.0762 75.1797 52.3613C74.7812 51.6465 74.0957 51.2891 73.123 51.2891C71.7988 51.2891 70.8379 51.7754 70.2402 52.748C69.6426 53.709 69.3438 55.2617 69.3438 57.4062V65ZM109.844 56.3516C109.844 54.8047 109.451 53.5801 108.666 52.6777C107.893 51.7754 106.844 51.3242 105.52 51.3242C104.16 51.3242 103.088 51.7754 102.303 52.6777C101.529 53.5684 101.143 54.793 101.143 56.3516C101.143 57.9102 101.523 59.123 102.285 59.9902C103.059 60.8574 104.125 61.291 105.484 61.291C106.867 61.291 107.939 60.8574 108.701 59.9902C109.463 59.123 109.844 57.9102 109.844 56.3516ZM114.414 65H109.562L109.633 62.5215C108.953 63.6113 108.133 64.4141 107.172 64.9297C106.223 65.4336 105.062 65.6855 103.691 65.6855C101.406 65.6855 99.5605 64.8359 98.1543 63.1367C96.7598 61.4375 96.0625 59.1934 96.0625 56.4043C96.0625 53.498 96.748 51.2363 98.1191 49.6191C99.502 47.9902 101.418 47.1758 103.867 47.1758C105.145 47.1758 106.264 47.4629 107.225 48.0371C108.197 48.6113 109.012 49.4668 109.668 50.6035V47.7559H114.414V65ZM131.852 56.3516C131.852 54.8047 131.459 53.5801 130.674 52.6777C129.9 51.7754 128.852 51.3242 127.527 51.3242C126.168 51.3242 125.096 51.7695 124.311 52.6602C123.537 53.5391 123.15 54.7578 123.15 56.3164C123.15 57.875 123.531 59.0938 124.293 59.9727C125.066 60.8516 126.133 61.291 127.492 61.291C128.875 61.291 129.947 60.8574 130.709 59.9902C131.471 59.123 131.852 57.9102 131.852 56.3516ZM136.422 65H131.57L131.641 62.5215C130.961 63.6113 130.141 64.4141 129.18 64.9297C128.23 65.4336 127.07 65.6855 125.699 65.6855C123.414 65.6855 121.568 64.8359 120.162 63.1367C118.768 61.4375 118.07 59.1934 118.07 56.4043C118.07 53.4863 118.756 51.2129 120.127 49.584C121.51 47.9551 123.426 47.1406 125.875 47.1406C127.129 47.1406 128.23 47.4277 129.18 48.002C130.129 48.5762 131.02 49.4844 131.852 50.7266C131.793 50.3047 131.746 49.8418 131.711 49.3379C131.688 48.8223 131.676 48.2363 131.676 47.5801V37.7539H136.422V65Z" fill="#E65C4F"/>
</svg>
