<svg width="106" height="89" viewBox="0 0 106 89" fill="none" xmlns="http://www.w3.org/2000/svg">
<path d="M55.6673 18L50.6673 24.6667L54.4673 29.7333L52.334 31.3333C50.0807 28.3333 46.334 23.3333 46.334 23.3333L38.334 34H67.6673L55.6673 18Z" fill="white"/>
<path d="M12.0215 62.2031H13.665L17.8574 72.6357L22.041 62.2031H23.6934L18.4902 75H17.207L12.0215 62.2031ZM11.4854 62.2031H12.9355L13.1729 70.0078V75H11.4854V62.2031ZM22.7705 62.2031H24.2207V75H22.5332V70.0078L22.7705 62.2031ZM26.5234 70.3506V70.1484C26.5234 69.4629 26.623 68.8271 26.8223 68.2412C27.0215 67.6494 27.3086 67.1367 27.6836 66.7031C28.0586 66.2637 28.5127 65.9238 29.0459 65.6836C29.5791 65.4375 30.1768 65.3145 30.8389 65.3145C31.5068 65.3145 32.1074 65.4375 32.6406 65.6836C33.1797 65.9238 33.6367 66.2637 34.0117 66.7031C34.3926 67.1367 34.6826 67.6494 34.8818 68.2412C35.0811 68.8271 35.1807 69.4629 35.1807 70.1484V70.3506C35.1807 71.0361 35.0811 71.6719 34.8818 72.2578C34.6826 72.8438 34.3926 73.3564 34.0117 73.7959C33.6367 74.2295 33.1826 74.5693 32.6494 74.8154C32.1221 75.0557 31.5244 75.1758 30.8564 75.1758C30.1885 75.1758 29.5879 75.0557 29.0547 74.8154C28.5215 74.5693 28.0645 74.2295 27.6836 73.7959C27.3086 73.3564 27.0215 72.8438 26.8223 72.2578C26.623 71.6719 26.5234 71.0361 26.5234 70.3506ZM28.1494 70.1484V70.3506C28.1494 70.8252 28.2051 71.2734 28.3164 71.6953C28.4277 72.1113 28.5947 72.4805 28.8174 72.8027C29.0459 73.125 29.3301 73.3799 29.6699 73.5674C30.0098 73.749 30.4053 73.8398 30.8564 73.8398C31.3018 73.8398 31.6914 73.749 32.0254 73.5674C32.3652 73.3799 32.6465 73.125 32.8691 72.8027C33.0918 72.4805 33.2588 72.1113 33.3701 71.6953C33.4873 71.2734 33.5459 70.8252 33.5459 70.3506V70.1484C33.5459 69.6797 33.4873 69.2373 33.3701 68.8213C33.2588 68.3994 33.0889 68.0273 32.8604 67.7051C32.6377 67.377 32.3564 67.1191 32.0166 66.9316C31.6826 66.7441 31.29 66.6504 30.8389 66.6504C30.3936 66.6504 30.001 66.7441 29.6611 66.9316C29.3271 67.1191 29.0459 67.377 28.8174 67.7051C28.5947 68.0273 28.4277 68.3994 28.3164 68.8213C28.2051 69.2373 28.1494 69.6797 28.1494 70.1484ZM43.0381 72.8027V65.4902H44.6729V75H43.1172L43.0381 72.8027ZM43.3457 70.7988L44.0225 70.7812C44.0225 71.4141 43.9551 72 43.8203 72.5391C43.6914 73.0723 43.4805 73.5352 43.1875 73.9277C42.8945 74.3203 42.5107 74.6279 42.0361 74.8506C41.5615 75.0674 40.9844 75.1758 40.3047 75.1758C39.8418 75.1758 39.417 75.1084 39.0303 74.9736C38.6494 74.8389 38.3213 74.6309 38.0459 74.3496C37.7705 74.0684 37.5566 73.7021 37.4043 73.251C37.2578 72.7998 37.1846 72.2578 37.1846 71.625V65.4902H38.8105V71.6426C38.8105 72.0703 38.8574 72.4248 38.9512 72.7061C39.0508 72.9814 39.1826 73.2012 39.3467 73.3652C39.5166 73.5234 39.7041 73.6348 39.9092 73.6992C40.1201 73.7637 40.3369 73.7959 40.5596 73.7959C41.251 73.7959 41.7988 73.6641 42.2031 73.4004C42.6074 73.1309 42.8975 72.7705 43.0732 72.3193C43.2549 71.8623 43.3457 71.3555 43.3457 70.7988ZM48.7773 67.5205V75H47.1514V65.4902H48.6895L48.7773 67.5205ZM48.3906 69.8848L47.7139 69.8584C47.7197 69.208 47.8164 68.6074 48.0039 68.0566C48.1914 67.5 48.4551 67.0166 48.7949 66.6064C49.1348 66.1963 49.5391 65.8799 50.0078 65.6572C50.4824 65.4287 51.0068 65.3145 51.5811 65.3145C52.0498 65.3145 52.4717 65.3789 52.8467 65.5078C53.2217 65.6309 53.541 65.8301 53.8047 66.1055C54.0742 66.3809 54.2793 66.7383 54.4199 67.1777C54.5605 67.6113 54.6309 68.1416 54.6309 68.7686V75H52.9961V68.751C52.9961 68.2529 52.9229 67.8545 52.7764 67.5557C52.6299 67.251 52.416 67.0312 52.1348 66.8965C51.8535 66.7559 51.5078 66.6855 51.0977 66.6855C50.6934 66.6855 50.3242 66.7705 49.9902 66.9404C49.6621 67.1104 49.3779 67.3447 49.1377 67.6436C48.9033 67.9424 48.7188 68.2852 48.584 68.6719C48.4551 69.0527 48.3906 69.457 48.3906 69.8848ZM61.082 65.4902V66.7383H55.9404V65.4902H61.082ZM57.6807 63.1787H59.3066V72.6445C59.3066 72.9668 59.3564 73.21 59.4561 73.374C59.5557 73.5381 59.6846 73.6465 59.8428 73.6992C60.001 73.752 60.1709 73.7783 60.3525 73.7783C60.4873 73.7783 60.6279 73.7666 60.7744 73.7432C60.9268 73.7139 61.041 73.6904 61.1172 73.6729L61.126 75C60.9971 75.041 60.8271 75.0791 60.6162 75.1143C60.4111 75.1553 60.1621 75.1758 59.8691 75.1758C59.4707 75.1758 59.1045 75.0967 58.7705 74.9385C58.4365 74.7803 58.1699 74.5166 57.9707 74.1475C57.7773 73.7725 57.6807 73.2686 57.6807 72.6357V63.1787ZM68.5967 73.374V68.4785C68.5967 68.1035 68.5205 67.7783 68.3682 67.5029C68.2217 67.2217 67.999 67.0049 67.7002 66.8525C67.4014 66.7002 67.0322 66.624 66.5928 66.624C66.1826 66.624 65.8223 66.6943 65.5117 66.835C65.207 66.9756 64.9668 67.1602 64.791 67.3887C64.6211 67.6172 64.5361 67.8633 64.5361 68.127H62.9102C62.9102 67.7871 62.998 67.4502 63.1738 67.1162C63.3496 66.7822 63.6016 66.4805 63.9297 66.2109C64.2637 65.9355 64.6621 65.7188 65.125 65.5605C65.5938 65.3965 66.1152 65.3145 66.6895 65.3145C67.3809 65.3145 67.9902 65.4316 68.5176 65.666C69.0508 65.9004 69.4668 66.2549 69.7656 66.7295C70.0703 67.1982 70.2227 67.7871 70.2227 68.4961V72.9258C70.2227 73.2422 70.249 73.5791 70.3018 73.9365C70.3604 74.2939 70.4453 74.6016 70.5566 74.8594V75H68.8604C68.7783 74.8125 68.7139 74.5635 68.667 74.2529C68.6201 73.9365 68.5967 73.6436 68.5967 73.374ZM68.8779 69.2344L68.8955 70.377H67.252C66.7891 70.377 66.376 70.415 66.0127 70.4912C65.6494 70.5615 65.3447 70.6699 65.0986 70.8164C64.8525 70.9629 64.665 71.1475 64.5361 71.3701C64.4072 71.5869 64.3428 71.8418 64.3428 72.1348C64.3428 72.4336 64.4102 72.7061 64.5449 72.9521C64.6797 73.1982 64.8818 73.3945 65.1514 73.541C65.4268 73.6816 65.7637 73.752 66.1621 73.752C66.6602 73.752 67.0996 73.6465 67.4805 73.4355C67.8613 73.2246 68.1631 72.9668 68.3857 72.6621C68.6143 72.3574 68.7373 72.0615 68.7549 71.7744L69.4492 72.5566C69.4082 72.8027 69.2969 73.0752 69.1152 73.374C68.9336 73.6729 68.6904 73.96 68.3857 74.2354C68.0869 74.5049 67.7295 74.7305 67.3135 74.9121C66.9033 75.0879 66.4404 75.1758 65.9248 75.1758C65.2803 75.1758 64.7148 75.0498 64.2285 74.7979C63.748 74.5459 63.373 74.209 63.1035 73.7871C62.8398 73.3594 62.708 72.8818 62.708 72.3545C62.708 71.8447 62.8076 71.3965 63.0068 71.0098C63.2061 70.6172 63.4932 70.292 63.8682 70.0342C64.2432 69.7705 64.6943 69.5713 65.2217 69.4365C65.749 69.3018 66.3379 69.2344 66.9883 69.2344H68.8779ZM74.5469 65.4902V75H72.9121V65.4902H74.5469ZM72.7891 62.9678C72.7891 62.7041 72.8682 62.4814 73.0264 62.2998C73.1904 62.1182 73.4307 62.0273 73.7471 62.0273C74.0576 62.0273 74.2949 62.1182 74.459 62.2998C74.6289 62.4814 74.7139 62.7041 74.7139 62.9678C74.7139 63.2197 74.6289 63.4365 74.459 63.6182C74.2949 63.7939 74.0576 63.8818 73.7471 63.8818C73.4307 63.8818 73.1904 63.7939 73.0264 63.6182C72.8682 63.4365 72.7891 63.2197 72.7891 62.9678ZM78.7832 67.5205V75H77.1572V65.4902H78.6953L78.7832 67.5205ZM78.3965 69.8848L77.7197 69.8584C77.7256 69.208 77.8223 68.6074 78.0098 68.0566C78.1973 67.5 78.4609 67.0166 78.8008 66.6064C79.1406 66.1963 79.5449 65.8799 80.0137 65.6572C80.4883 65.4287 81.0127 65.3145 81.5869 65.3145C82.0557 65.3145 82.4775 65.3789 82.8525 65.5078C83.2275 65.6309 83.5469 65.8301 83.8105 66.1055C84.0801 66.3809 84.2852 66.7383 84.4258 67.1777C84.5664 67.6113 84.6367 68.1416 84.6367 68.7686V75H83.002V68.751C83.002 68.2529 82.9287 67.8545 82.7822 67.5557C82.6357 67.251 82.4219 67.0312 82.1406 66.8965C81.8594 66.7559 81.5137 66.6855 81.1035 66.6855C80.6992 66.6855 80.3301 66.7705 79.9961 66.9404C79.668 67.1104 79.3838 67.3447 79.1436 67.6436C78.9092 67.9424 78.7246 68.2852 78.5898 68.6719C78.4609 69.0527 78.3965 69.457 78.3965 69.8848ZM92.6436 72.4775C92.6436 72.2432 92.5908 72.0264 92.4854 71.8271C92.3857 71.6221 92.1777 71.4375 91.8613 71.2734C91.5508 71.1035 91.082 70.957 90.4551 70.834C89.9277 70.7227 89.4502 70.5908 89.0225 70.4385C88.6006 70.2861 88.2402 70.1016 87.9414 69.8848C87.6484 69.668 87.4229 69.4131 87.2646 69.1201C87.1064 68.8271 87.0273 68.4844 87.0273 68.0918C87.0273 67.7168 87.1094 67.3623 87.2734 67.0283C87.4434 66.6943 87.6807 66.3984 87.9854 66.1406C88.2959 65.8828 88.668 65.6807 89.1016 65.5342C89.5352 65.3877 90.0186 65.3145 90.5518 65.3145C91.3135 65.3145 91.9639 65.4492 92.5029 65.7188C93.042 65.9883 93.4551 66.3486 93.7422 66.7998C94.0293 67.2451 94.1729 67.7402 94.1729 68.2852H92.5469C92.5469 68.0215 92.4678 67.7666 92.3096 67.5205C92.1572 67.2686 91.9316 67.0605 91.6328 66.8965C91.3398 66.7324 90.9795 66.6504 90.5518 66.6504C90.1006 66.6504 89.7344 66.7207 89.4531 66.8613C89.1777 66.9961 88.9756 67.1689 88.8467 67.3799C88.7236 67.5908 88.6621 67.8135 88.6621 68.0479C88.6621 68.2236 88.6914 68.3818 88.75 68.5225C88.8145 68.6572 88.9258 68.7832 89.084 68.9004C89.2422 69.0117 89.4648 69.1172 89.752 69.2168C90.0391 69.3164 90.4053 69.416 90.8506 69.5156C91.6299 69.6914 92.2715 69.9023 92.7754 70.1484C93.2793 70.3945 93.6543 70.6963 93.9004 71.0537C94.1465 71.4111 94.2695 71.8447 94.2695 72.3545C94.2695 72.7705 94.1816 73.1514 94.0059 73.4971C93.8359 73.8428 93.5869 74.1416 93.2588 74.3936C92.9365 74.6396 92.5498 74.833 92.0986 74.9736C91.6533 75.1084 91.1523 75.1758 90.5957 75.1758C89.7578 75.1758 89.0488 75.0264 88.4688 74.7275C87.8887 74.4287 87.4492 74.042 87.1504 73.5674C86.8516 73.0928 86.7021 72.5918 86.7021 72.0645H88.3369C88.3604 72.5098 88.4893 72.8643 88.7236 73.1279C88.958 73.3857 89.2451 73.5703 89.585 73.6816C89.9248 73.7871 90.2617 73.8398 90.5957 73.8398C91.041 73.8398 91.4131 73.7812 91.7119 73.6641C92.0166 73.5469 92.248 73.3857 92.4062 73.1807C92.5645 72.9756 92.6436 72.7412 92.6436 72.4775Z" fill="white"/>
</svg>
