<svg width="40" height="40" viewBox="0 0 40 40" fill="none" xmlns="http://www.w3.org/2000/svg">
<path d="M20.0007 3.33325C10.784 3.33325 3.33398 10.7833 3.33398 19.9999C3.33398 29.2166 10.784 36.6666 20.0007 36.6666C29.2173 36.6666 36.6673 29.2166 36.6673 19.9999C36.6673 10.7833 29.2173 3.33325 20.0007 3.33325ZM25.1673 11.7833C25.4007 11.7833 25.634 11.8666 25.834 12.0499L27.9507 14.1666C28.334 14.5333 28.334 15.1166 27.9507 15.4666L26.284 17.1333L22.8673 13.7166L24.534 12.0499C24.7007 11.8666 24.934 11.7833 25.1673 11.7833ZM21.884 14.6833L25.3173 18.1166L15.2173 28.2166H11.784V24.7833L21.884 14.6833Z" fill="#E65C4F"/>
</svg>
