<svg width="32" height="60" viewBox="0 0 32 60" fill="none" xmlns="http://www.w3.org/2000/svg">
<path d="M4.39001 1.67001L30.3 28.25C30.7551 28.7169 31.0098 29.343 31.0098 29.995C31.0098 30.647 30.7551 31.2731 30.3 31.74L4.39001 58.33C4.17803 58.5477 3.92458 58.7208 3.64463 58.8389C3.36467 58.9571 3.06388 59.018 2.76001 59.018C2.45614 59.018 2.15535 58.9571 1.87539 58.8389C1.59544 58.7208 1.34199 58.5477 1.13001 58.33C0.693901 57.8835 0.449747 57.2841 0.449747 56.66C0.449747 56.0359 0.693901 55.4365 1.13001 54.99L25.495 29.995L1.13001 5.00501C0.695396 4.55875 0.452188 3.96043 0.452188 3.33751C0.452188 2.71458 0.695396 2.11627 1.13001 1.67001C1.34199 1.45229 1.59544 1.27924 1.87539 1.16109C2.15535 1.04293 2.45614 0.982056 2.76001 0.982056C3.06388 0.982056 3.36467 1.04293 3.64463 1.16109C3.92458 1.27924 4.17803 1.45229 4.39001 1.67001Z" fill="#252525"/>
</svg>
