<svg width="136" height="89" viewBox="0 0 136 89" fill="none" xmlns="http://www.w3.org/2000/svg">
<path d="M60.0007 20.6667V38H65.334V31.3333C65.334 29.8667 66.534 28.6667 68.0007 28.6667C69.4673 28.6667 70.6673 29.8667 70.6673 31.3333V38H76.0007V20.6667L68.0007 14L60.0007 20.6667ZM70.0007 23.3333C70.0007 24.4 69.0673 25.3333 68.0007 25.3333C66.934 25.3333 66.0007 24.4 66.0007 23.3333C66.0007 22.2667 66.934 21.3333 68.0007 21.3333C69.0673 21.3333 70.0007 22.2667 70.0007 23.3333ZM56.0007 16.6667C54.534 16.6667 53.334 17.8667 53.334 19.3333V20.6667H58.6673V19.3333C58.6673 17.8667 57.4673 16.6667 56.0007 16.6667ZM53.334 22H58.6673V38H53.334V22ZM80.0007 16.6667C78.534 16.6667 77.334 17.8667 77.334 19.3333V20.6667H82.6673V19.3333C82.6673 17.8667 81.4673 16.6667 80.0007 16.6667ZM77.334 22H82.6673V38H77.334V22Z" fill="white"/>
<path d="M16.2227 63.3369L11.9863 75H10.2549L15.1328 62.2031H16.249L16.2227 63.3369ZM19.7734 75L15.5283 63.3369L15.502 62.2031H16.6182L21.5137 75H19.7734ZM19.5537 70.2627V71.6514H12.3643V70.2627H19.5537ZM24.6074 67.5205V75H22.9814V65.4902H24.5195L24.6074 67.5205ZM24.2207 69.8848L23.5439 69.8584C23.5498 69.208 23.6465 68.6074 23.834 68.0566C24.0215 67.5 24.2852 67.0166 24.625 66.6064C24.9648 66.1963 25.3691 65.8799 25.8379 65.6572C26.3125 65.4287 26.8369 65.3145 27.4111 65.3145C27.8799 65.3145 28.3018 65.3789 28.6768 65.5078C29.0518 65.6309 29.3711 65.8301 29.6348 66.1055C29.9043 66.3809 30.1094 66.7383 30.25 67.1777C30.3906 67.6113 30.4609 68.1416 30.4609 68.7686V75H28.8262V68.751C28.8262 68.2529 28.7529 67.8545 28.6064 67.5557C28.46 67.251 28.2461 67.0312 27.9648 66.8965C27.6836 66.7559 27.3379 66.6855 26.9277 66.6855C26.5234 66.6855 26.1543 66.7705 25.8203 66.9404C25.4922 67.1104 25.208 67.3447 24.9678 67.6436C24.7334 67.9424 24.5488 68.2852 24.4141 68.6719C24.2852 69.0527 24.2207 69.457 24.2207 69.8848ZM36.7363 73.8398C37.123 73.8398 37.4805 73.7607 37.8086 73.6025C38.1367 73.4443 38.4062 73.2275 38.6172 72.9521C38.8281 72.6709 38.9482 72.3516 38.9775 71.9941H40.5244C40.4951 72.5566 40.3047 73.0811 39.9531 73.5674C39.6074 74.0479 39.1533 74.4375 38.5908 74.7363C38.0283 75.0293 37.4102 75.1758 36.7363 75.1758C36.0215 75.1758 35.3975 75.0498 34.8643 74.7979C34.3369 74.5459 33.8975 74.2002 33.5459 73.7607C33.2002 73.3213 32.9395 72.8174 32.7637 72.249C32.5938 71.6748 32.5088 71.0684 32.5088 70.4297V70.0605C32.5088 69.4219 32.5938 68.8184 32.7637 68.25C32.9395 67.6758 33.2002 67.1689 33.5459 66.7295C33.8975 66.29 34.3369 65.9443 34.8643 65.6924C35.3975 65.4404 36.0215 65.3145 36.7363 65.3145C37.4805 65.3145 38.1309 65.4668 38.6875 65.7715C39.2441 66.0703 39.6807 66.4805 39.9971 67.002C40.3193 67.5176 40.4951 68.1035 40.5244 68.7598H38.9775C38.9482 68.3672 38.8369 68.0127 38.6436 67.6963C38.4561 67.3799 38.1982 67.1279 37.8701 66.9404C37.5479 66.7471 37.1699 66.6504 36.7363 66.6504C36.2383 66.6504 35.8193 66.75 35.4795 66.9492C35.1455 67.1426 34.8789 67.4062 34.6797 67.7402C34.4863 68.0684 34.3457 68.4346 34.2578 68.8389C34.1758 69.2373 34.1348 69.6445 34.1348 70.0605V70.4297C34.1348 70.8457 34.1758 71.2559 34.2578 71.6602C34.3398 72.0645 34.4775 72.4307 34.6709 72.7588C34.8701 73.0869 35.1367 73.3506 35.4707 73.5498C35.8105 73.7432 36.2324 73.8398 36.7363 73.8398ZM44.1191 65.4902V75H42.4844V65.4902H44.1191ZM42.3613 62.9678C42.3613 62.7041 42.4404 62.4814 42.5986 62.2998C42.7627 62.1182 43.0029 62.0273 43.3193 62.0273C43.6299 62.0273 43.8672 62.1182 44.0312 62.2998C44.2012 62.4814 44.2861 62.7041 44.2861 62.9678C44.2861 63.2197 44.2012 63.4365 44.0312 63.6182C43.8672 63.7939 43.6299 63.8818 43.3193 63.8818C43.0029 63.8818 42.7627 63.7939 42.5986 63.6182C42.4404 63.4365 42.3613 63.2197 42.3613 62.9678ZM50.6758 75.1758C50.0137 75.1758 49.4131 75.0645 48.874 74.8418C48.3408 74.6133 47.8809 74.2939 47.4941 73.8838C47.1133 73.4736 46.8203 72.9873 46.6152 72.4248C46.4102 71.8623 46.3076 71.2471 46.3076 70.5791V70.21C46.3076 69.4365 46.4219 68.748 46.6504 68.1445C46.8789 67.5352 47.1895 67.0195 47.582 66.5977C47.9746 66.1758 48.4199 65.8564 48.918 65.6396C49.416 65.4229 49.9316 65.3145 50.4648 65.3145C51.1445 65.3145 51.7305 65.4316 52.2227 65.666C52.7207 65.9004 53.1279 66.2285 53.4443 66.6504C53.7607 67.0664 53.9951 67.5586 54.1475 68.127C54.2998 68.6895 54.376 69.3047 54.376 69.9727V70.7021H47.2744V69.375H52.75V69.252C52.7266 68.8301 52.6387 68.4199 52.4863 68.0215C52.3398 67.623 52.1055 67.2949 51.7832 67.0371C51.4609 66.7793 51.0215 66.6504 50.4648 66.6504C50.0957 66.6504 49.7559 66.7295 49.4453 66.8877C49.1348 67.04 48.8682 67.2686 48.6455 67.5732C48.4229 67.8779 48.25 68.25 48.127 68.6895C48.0039 69.1289 47.9424 69.6357 47.9424 70.21V70.5791C47.9424 71.0303 48.0039 71.4551 48.127 71.8535C48.2559 72.2461 48.4404 72.5918 48.6807 72.8906C48.9268 73.1895 49.2227 73.4238 49.5684 73.5938C49.9199 73.7637 50.3184 73.8486 50.7637 73.8486C51.3379 73.8486 51.8242 73.7314 52.2227 73.4971C52.6211 73.2627 52.9697 72.9492 53.2686 72.5566L54.2529 73.3389C54.0479 73.6494 53.7871 73.9453 53.4707 74.2266C53.1543 74.5078 52.7646 74.7363 52.3018 74.9121C51.8447 75.0879 51.3027 75.1758 50.6758 75.1758ZM57.9004 67.5205V75H56.2744V65.4902H57.8125L57.9004 67.5205ZM57.5137 69.8848L56.8369 69.8584C56.8428 69.208 56.9395 68.6074 57.127 68.0566C57.3145 67.5 57.5781 67.0166 57.918 66.6064C58.2578 66.1963 58.6621 65.8799 59.1309 65.6572C59.6055 65.4287 60.1299 65.3145 60.7041 65.3145C61.1729 65.3145 61.5947 65.3789 61.9697 65.5078C62.3447 65.6309 62.6641 65.8301 62.9277 66.1055C63.1973 66.3809 63.4023 66.7383 63.543 67.1777C63.6836 67.6113 63.7539 68.1416 63.7539 68.7686V75H62.1191V68.751C62.1191 68.2529 62.0459 67.8545 61.8994 67.5557C61.7529 67.251 61.5391 67.0312 61.2578 66.8965C60.9766 66.7559 60.6309 66.6855 60.2207 66.6855C59.8164 66.6855 59.4473 66.7705 59.1133 66.9404C58.7852 67.1104 58.501 67.3447 58.2607 67.6436C58.0264 67.9424 57.8418 68.2852 57.707 68.6719C57.5781 69.0527 57.5137 69.457 57.5137 69.8848ZM70.2051 65.4902V66.7383H65.0635V65.4902H70.2051ZM66.8037 63.1787H68.4297V72.6445C68.4297 72.9668 68.4795 73.21 68.5791 73.374C68.6787 73.5381 68.8076 73.6465 68.9658 73.6992C69.124 73.752 69.2939 73.7783 69.4756 73.7783C69.6104 73.7783 69.751 73.7666 69.8975 73.7432C70.0498 73.7139 70.1641 73.6904 70.2402 73.6729L70.249 75C70.1201 75.041 69.9502 75.0791 69.7393 75.1143C69.5342 75.1553 69.2852 75.1758 68.9922 75.1758C68.5938 75.1758 68.2275 75.0967 67.8936 74.9385C67.5596 74.7803 67.293 74.5166 67.0938 74.1475C66.9004 73.7725 66.8037 73.2686 66.8037 72.6357V63.1787ZM83.6436 71.7656C83.6436 71.4668 83.5967 71.2031 83.5029 70.9746C83.415 70.7402 83.2568 70.5293 83.0283 70.3418C82.8057 70.1543 82.4951 69.9756 82.0967 69.8057C81.7041 69.6357 81.2061 69.4629 80.6025 69.2871C79.9697 69.0996 79.3984 68.8916 78.8887 68.6631C78.3789 68.4287 77.9424 68.1621 77.5791 67.8633C77.2158 67.5645 76.9375 67.2217 76.7441 66.835C76.5508 66.4482 76.4541 66.0059 76.4541 65.5078C76.4541 65.0098 76.5566 64.5498 76.7617 64.1279C76.9668 63.7061 77.2598 63.3398 77.6406 63.0293C78.0273 62.7129 78.4873 62.4668 79.0205 62.291C79.5537 62.1152 80.1484 62.0273 80.8047 62.0273C81.7656 62.0273 82.5801 62.2119 83.248 62.5811C83.9219 62.9443 84.4346 63.4219 84.7861 64.0137C85.1377 64.5996 85.3135 65.2266 85.3135 65.8945H83.626C83.626 65.4141 83.5234 64.9893 83.3184 64.6201C83.1133 64.2451 82.8027 63.9521 82.3867 63.7412C81.9707 63.5244 81.4434 63.416 80.8047 63.416C80.2012 63.416 79.7031 63.5068 79.3105 63.6885C78.918 63.8701 78.625 64.1162 78.4316 64.4268C78.2441 64.7373 78.1504 65.0918 78.1504 65.4902C78.1504 65.7598 78.2061 66.0059 78.3174 66.2285C78.4346 66.4453 78.6133 66.6475 78.8535 66.835C79.0996 67.0225 79.4102 67.1953 79.7852 67.3535C80.166 67.5117 80.6201 67.6641 81.1475 67.8105C81.874 68.0156 82.501 68.2441 83.0283 68.4961C83.5557 68.748 83.9893 69.0322 84.3291 69.3486C84.6748 69.6592 84.9297 70.0137 85.0938 70.4121C85.2637 70.8047 85.3486 71.25 85.3486 71.748C85.3486 72.2695 85.2432 72.7412 85.0322 73.1631C84.8213 73.585 84.5195 73.9453 84.127 74.2441C83.7344 74.543 83.2627 74.7744 82.7119 74.9385C82.167 75.0967 81.5576 75.1758 80.8838 75.1758C80.292 75.1758 79.709 75.0938 79.1348 74.9297C78.5664 74.7656 78.0479 74.5195 77.5791 74.1914C77.1162 73.8633 76.7441 73.459 76.4629 72.9785C76.1875 72.4922 76.0498 71.9297 76.0498 71.291H77.7373C77.7373 71.7305 77.8223 72.1084 77.9922 72.4248C78.1621 72.7354 78.3936 72.9932 78.6865 73.1982C78.9854 73.4033 79.3223 73.5557 79.6973 73.6553C80.0781 73.749 80.4736 73.7959 80.8838 73.7959C81.4756 73.7959 81.9766 73.7139 82.3867 73.5498C82.7969 73.3857 83.1074 73.1514 83.3184 72.8467C83.5352 72.542 83.6436 72.1816 83.6436 71.7656ZM89.0312 65.4902V75H87.3965V65.4902H89.0312ZM87.2734 62.9678C87.2734 62.7041 87.3525 62.4814 87.5107 62.2998C87.6748 62.1182 87.915 62.0273 88.2314 62.0273C88.542 62.0273 88.7793 62.1182 88.9434 62.2998C89.1133 62.4814 89.1982 62.7041 89.1982 62.9678C89.1982 63.2197 89.1133 63.4365 88.9434 63.6182C88.7793 63.7939 88.542 63.8818 88.2314 63.8818C87.915 63.8818 87.6748 63.7939 87.5107 63.6182C87.3525 63.4365 87.2734 63.2197 87.2734 62.9678ZM97.8027 65.4902H99.2793V74.7979C99.2793 75.6357 99.1094 76.3506 98.7695 76.9424C98.4297 77.5342 97.9551 77.9824 97.3457 78.2871C96.7422 78.5977 96.0449 78.7529 95.2539 78.7529C94.9258 78.7529 94.5391 78.7002 94.0938 78.5947C93.6543 78.4951 93.2207 78.3223 92.793 78.0762C92.3711 77.8359 92.0166 77.5107 91.7295 77.1006L92.582 76.1338C92.9805 76.6143 93.3965 76.9482 93.8301 77.1357C94.2695 77.3232 94.7031 77.417 95.1309 77.417C95.6465 77.417 96.0918 77.3203 96.4668 77.127C96.8418 76.9336 97.1318 76.6465 97.3369 76.2656C97.5479 75.8906 97.6533 75.4277 97.6533 74.877V67.582L97.8027 65.4902ZM91.2549 70.3506V70.166C91.2549 69.4395 91.3398 68.7803 91.5098 68.1885C91.6855 67.5908 91.9346 67.0781 92.2568 66.6504C92.585 66.2227 92.9805 65.8945 93.4434 65.666C93.9062 65.4316 94.4277 65.3145 95.0078 65.3145C95.6055 65.3145 96.127 65.4199 96.5723 65.6309C97.0234 65.8359 97.4043 66.1377 97.7148 66.5361C98.0312 66.9287 98.2803 67.4033 98.4619 67.96C98.6436 68.5166 98.7695 69.1465 98.8398 69.8496V70.6582C98.7754 71.3555 98.6494 71.9824 98.4619 72.5391C98.2803 73.0957 98.0312 73.5703 97.7148 73.9629C97.4043 74.3555 97.0234 74.6572 96.5723 74.8682C96.1211 75.0732 95.5938 75.1758 94.9902 75.1758C94.4219 75.1758 93.9062 75.0557 93.4434 74.8154C92.9863 74.5752 92.5938 74.2383 92.2656 73.8047C91.9375 73.3711 91.6855 72.8613 91.5098 72.2754C91.3398 71.6836 91.2549 71.042 91.2549 70.3506ZM92.8809 70.166V70.3506C92.8809 70.8252 92.9277 71.2705 93.0215 71.6865C93.1211 72.1025 93.2705 72.4688 93.4697 72.7852C93.6748 73.1016 93.9355 73.3506 94.252 73.5322C94.5684 73.708 94.9463 73.7959 95.3857 73.7959C95.9248 73.7959 96.3701 73.6816 96.7217 73.4531C97.0732 73.2246 97.3516 72.9229 97.5566 72.5479C97.7676 72.1729 97.9316 71.7656 98.0488 71.3262V69.208C97.9844 68.8857 97.8848 68.5752 97.75 68.2764C97.6211 67.9717 97.4512 67.7021 97.2402 67.4678C97.0352 67.2275 96.7803 67.0371 96.4756 66.8965C96.1709 66.7559 95.8135 66.6855 95.4033 66.6855C94.958 66.6855 94.5742 66.7793 94.252 66.9668C93.9355 67.1484 93.6748 67.4004 93.4697 67.7227C93.2705 68.0391 93.1211 68.4082 93.0215 68.8301C92.9277 69.2461 92.8809 69.6914 92.8809 70.166ZM103.375 61.5V75H101.749V61.5H103.375ZM102.988 69.8848L102.312 69.8584C102.317 69.208 102.414 68.6074 102.602 68.0566C102.789 67.5 103.053 67.0166 103.393 66.6064C103.732 66.1963 104.137 65.8799 104.605 65.6572C105.08 65.4287 105.604 65.3145 106.179 65.3145C106.647 65.3145 107.069 65.3789 107.444 65.5078C107.819 65.6309 108.139 65.8301 108.402 66.1055C108.672 66.3809 108.877 66.7383 109.018 67.1777C109.158 67.6113 109.229 68.1416 109.229 68.7686V75H107.594V68.751C107.594 68.2529 107.521 67.8545 107.374 67.5557C107.228 67.251 107.014 67.0312 106.732 66.8965C106.451 66.7559 106.105 66.6855 105.695 66.6855C105.291 66.6855 104.922 66.7705 104.588 66.9404C104.26 67.1104 103.976 67.3447 103.735 67.6436C103.501 67.9424 103.316 68.2852 103.182 68.6719C103.053 69.0527 102.988 69.457 102.988 69.8848ZM115.645 65.4902V66.7383H110.503V65.4902H115.645ZM112.243 63.1787H113.869V72.6445C113.869 72.9668 113.919 73.21 114.019 73.374C114.118 73.5381 114.247 73.6465 114.405 73.6992C114.563 73.752 114.733 73.7783 114.915 73.7783C115.05 73.7783 115.19 73.7666 115.337 73.7432C115.489 73.7139 115.604 73.6904 115.68 73.6729L115.688 75C115.56 75.041 115.39 75.0791 115.179 75.1143C114.974 75.1553 114.725 75.1758 114.432 75.1758C114.033 75.1758 113.667 75.0967 113.333 74.9385C112.999 74.7803 112.732 74.5166 112.533 74.1475C112.34 73.7725 112.243 73.2686 112.243 72.6357V63.1787ZM123.089 72.4775C123.089 72.2432 123.036 72.0264 122.931 71.8271C122.831 71.6221 122.623 71.4375 122.307 71.2734C121.996 71.1035 121.527 70.957 120.9 70.834C120.373 70.7227 119.896 70.5908 119.468 70.4385C119.046 70.2861 118.686 70.1016 118.387 69.8848C118.094 69.668 117.868 69.4131 117.71 69.1201C117.552 68.8271 117.473 68.4844 117.473 68.0918C117.473 67.7168 117.555 67.3623 117.719 67.0283C117.889 66.6943 118.126 66.3984 118.431 66.1406C118.741 65.8828 119.113 65.6807 119.547 65.5342C119.98 65.3877 120.464 65.3145 120.997 65.3145C121.759 65.3145 122.409 65.4492 122.948 65.7188C123.487 65.9883 123.9 66.3486 124.188 66.7998C124.475 67.2451 124.618 67.7402 124.618 68.2852H122.992C122.992 68.0215 122.913 67.7666 122.755 67.5205C122.603 67.2686 122.377 67.0605 122.078 66.8965C121.785 66.7324 121.425 66.6504 120.997 66.6504C120.546 66.6504 120.18 66.7207 119.898 66.8613C119.623 66.9961 119.421 67.1689 119.292 67.3799C119.169 67.5908 119.107 67.8135 119.107 68.0479C119.107 68.2236 119.137 68.3818 119.195 68.5225C119.26 68.6572 119.371 68.7832 119.529 68.9004C119.688 69.0117 119.91 69.1172 120.197 69.2168C120.484 69.3164 120.851 69.416 121.296 69.5156C122.075 69.6914 122.717 69.9023 123.221 70.1484C123.725 70.3945 124.1 70.6963 124.346 71.0537C124.592 71.4111 124.715 71.8447 124.715 72.3545C124.715 72.7705 124.627 73.1514 124.451 73.4971C124.281 73.8428 124.032 74.1416 123.704 74.3936C123.382 74.6396 122.995 74.833 122.544 74.9736C122.099 75.1084 121.598 75.1758 121.041 75.1758C120.203 75.1758 119.494 75.0264 118.914 74.7275C118.334 74.4287 117.895 74.042 117.596 73.5674C117.297 73.0928 117.147 72.5918 117.147 72.0645H118.782C118.806 72.5098 118.935 72.8643 119.169 73.1279C119.403 73.3857 119.69 73.5703 120.03 73.6816C120.37 73.7871 120.707 73.8398 121.041 73.8398C121.486 73.8398 121.858 73.7812 122.157 73.6641C122.462 73.5469 122.693 73.3857 122.852 73.1807C123.01 72.9756 123.089 72.7412 123.089 72.4775Z" fill="white"/>
</svg>
