<svg width="32" height="32" viewBox="0 0 32 32" fill="none" xmlns="http://www.w3.org/2000/svg">
<path d="M13.7433 9.62648C14.5994 7.49224 15.0275 6.42511 15.7229 6.27721C15.9058 6.23832 16.0948 6.23832 16.2776 6.27721C16.9731 6.42511 17.4011 7.49224 18.2572 9.62648C18.7441 10.8402 18.9875 11.447 19.443 11.8598C19.5707 11.9756 19.7094 12.0787 19.8571 12.1677C20.3835 12.485 21.0407 12.5438 22.3551 12.6616C24.5801 12.8608 25.6926 12.9605 26.0323 13.5948C26.1027 13.7262 26.1505 13.8684 26.1739 14.0156C26.2865 14.7263 25.4686 15.4704 23.8329 16.9585L23.3787 17.3718C22.614 18.0675 22.2316 18.4154 22.0104 18.8495C21.8778 19.11 21.7888 19.3904 21.7471 19.6797C21.6777 20.162 21.7896 20.6666 22.0136 21.6759L22.0936 22.0365C22.4952 23.8466 22.696 24.7516 22.4453 25.1965C22.2201 25.596 21.8054 25.8519 21.3473 25.8737C20.8373 25.8981 20.1186 25.3125 18.6813 24.1413C17.7344 23.3697 17.2609 22.9839 16.7353 22.8332C16.2549 22.6954 15.7456 22.6954 15.2652 22.8332C14.7396 22.9839 14.2662 23.3697 13.3192 24.1413C11.8819 25.3125 11.1633 25.8981 10.6532 25.8737C10.1951 25.8519 9.78038 25.596 9.55522 25.1965C9.30457 24.7516 9.50536 23.8466 9.90696 22.0365L9.98697 21.6759C10.2109 20.6666 10.3229 20.162 10.2534 19.6797C10.2117 19.3904 10.1228 19.11 9.99009 18.8495C9.76892 18.4154 9.38656 18.0675 8.62183 17.3718L8.1676 16.9585C6.53188 15.4704 5.71403 14.7263 5.82666 14.0156C5.84998 13.8684 5.89782 13.7262 5.96818 13.5948C6.30792 12.9605 7.42042 12.8608 9.64544 12.6616C10.9598 12.5438 11.617 12.485 12.1435 12.1677C12.2911 12.0787 12.4298 11.9756 12.5576 11.8598C13.0131 11.447 13.2565 10.8402 13.7433 9.62648Z" fill="#F1E809" stroke="#F1E809" stroke-width="2"/>
</svg>
