<svg width="36" height="36" viewBox="0 0 36 36" fill="none" xmlns="http://www.w3.org/2000/svg">
<path d="M3 28.5C2.575 28.5 2.219 28.356 1.932 28.068C1.644 27.781 1.5 27.425 1.5 27V7.5C1.5 7.075 1.644 6.7185 1.932 6.4305C2.219 6.1435 2.575 6 3 6C3.425 6 3.7815 6.1435 4.0695 6.4305C4.3565 6.7185 4.5 7.075 4.5 7.5V21H16.5V12C16.5 11.175 16.794 10.469 17.382 9.882C17.969 9.294 18.675 9 19.5 9H28.5C30.15 9 31.5625 9.5875 32.7375 10.7625C33.9125 11.9375 34.5 13.35 34.5 15V27C34.5 27.425 34.356 27.781 34.068 28.068C33.781 28.356 33.425 28.5 33 28.5C32.575 28.5 32.219 28.356 31.932 28.068C31.644 27.781 31.5 27.425 31.5 27V24H4.5V27C4.5 27.425 4.3565 27.781 4.0695 28.068C3.7815 28.356 3.425 28.5 3 28.5ZM10.5 19.5C9.25 19.5 8.1875 19.0625 7.3125 18.1875C6.4375 17.3125 6 16.25 6 15C6 13.75 6.4375 12.6875 7.3125 11.8125C8.1875 10.9375 9.25 10.5 10.5 10.5C11.75 10.5 12.8125 10.9375 13.6875 11.8125C14.5625 12.6875 15 13.75 15 15C15 16.25 14.5625 17.3125 13.6875 18.1875C12.8125 19.0625 11.75 19.5 10.5 19.5ZM19.5 21H31.5V15C31.5 14.175 31.2065 13.4685 30.6195 12.8805C30.0315 12.2935 29.325 12 28.5 12H19.5V21ZM10.5 16.5C10.925 16.5 11.2815 16.356 11.5695 16.068C11.8565 15.781 12 15.425 12 15C12 14.575 11.8565 14.2185 11.5695 13.9305C11.2815 13.6435 10.925 13.5 10.5 13.5C10.075 13.5 9.7185 13.6435 9.4305 13.9305C9.1435 14.2185 9 14.575 9 15C9 15.425 9.1435 15.781 9.4305 16.068C9.7185 16.356 10.075 16.5 10.5 16.5ZM19.5 12V21V12Z" fill="url(#paint0_linear_1080_5431)"/>
<defs>
<linearGradient id="paint0_linear_1080_5431" x1="1.5" y1="17.25" x2="85.1458" y2="17.25" gradientUnits="userSpaceOnUse">
<stop stop-color="#252525"/>
<stop offset="1" stop-color="#E65C4F"/>
</linearGradient>
</defs>
</svg>
