<svg width="32" height="32" viewBox="0 0 32 32" fill="none" xmlns="http://www.w3.org/2000/svg">
<path d="M26.666 26.6665C24.8127 26.6665 22.9593 26.0398 21.3327 24.8932C18.0793 27.1732 13.9193 27.1732 10.666 24.8932C9.03935 26.0398 7.18602 26.6665 5.33268 26.6665H2.66602V29.3332H5.33268C7.15935 29.3332 8.98602 28.8665 10.666 27.9998C13.9993 29.7332 17.9993 29.7332 21.3327 27.9998C23.0127 28.8665 24.826 29.3332 26.666 29.3332H29.3327V26.6665M26.666 21.3332C24.8127 21.3332 22.9593 20.7065 21.3327 19.5598C18.0793 21.8398 13.9193 21.8398 10.666 19.5598C9.03935 20.7065 7.18602 21.3332 5.33268 21.3332H2.66602V23.9998H5.33268C7.15935 23.9998 8.98602 23.5332 10.666 22.6665C13.9993 24.3998 17.9993 24.3998 21.3327 22.6665C23.0127 23.5332 24.826 23.9998 26.666 23.9998H29.3327V21.3332M29.3327 2.6665H2.66602V5.33317H7.99935V21.3332H23.9993V5.33317H29.3327M11.9993 5.33317H14.666V13.3332H11.9993M17.3327 10.6665H19.9993V18.6665H17.3327V10.6665Z" fill="white"/>
</svg>
