<svg width="102" height="89" viewBox="0 0 102 89" fill="none" xmlns="http://www.w3.org/2000/svg">
<path d="M61.666 36.6665C59.8127 36.6665 57.9593 36.0398 56.3327 34.8932C53.0793 37.1732 48.9193 37.1732 45.666 34.8932C44.0393 36.0398 42.186 36.6665 40.3327 36.6665H37.666V39.3332H40.3327C42.1593 39.3332 43.986 38.8665 45.666 37.9998C48.9993 39.7332 52.9993 39.7332 56.3327 37.9998C58.0127 38.8665 59.826 39.3332 61.666 39.3332H64.3327V36.6665M61.666 31.3332C59.8127 31.3332 57.9593 30.7065 56.3327 29.5598C53.0793 31.8398 48.9193 31.8398 45.666 29.5598C44.0393 30.7065 42.186 31.3332 40.3327 31.3332H37.666V33.9998H40.3327C42.1593 33.9998 43.986 33.5332 45.666 32.6665C48.9993 34.3998 52.9993 34.3998 56.3327 32.6665C58.0127 33.5332 59.826 33.9998 61.666 33.9998H64.3327V31.3332M64.3327 12.6665H37.666V15.3332H42.9993V31.3332H58.9993V15.3332H64.3327M46.9993 15.3332H49.666V23.3332H46.9993M52.3327 20.6665H54.9993V28.6665H52.3327V20.6665Z" fill="white"/>
<path d="M14.8516 71.1328L17.3916 62.2031H18.6221L17.9102 65.6748L15.1768 75H13.9551L14.8516 71.1328ZM12.2236 62.2031L14.2451 70.957L14.8516 75H13.6387L10.5361 62.2031H12.2236ZM21.9092 70.9482L23.8867 62.2031H25.583L22.4893 75H21.2764L21.9092 70.9482ZM18.8066 62.2031L21.2764 71.1328L22.1729 75H20.9512L18.3145 65.6748L17.5938 62.2031H18.8066ZM32.5264 73.374V68.4785C32.5264 68.1035 32.4502 67.7783 32.2979 67.5029C32.1514 67.2217 31.9287 67.0049 31.6299 66.8525C31.3311 66.7002 30.9619 66.624 30.5225 66.624C30.1123 66.624 29.752 66.6943 29.4414 66.835C29.1367 66.9756 28.8965 67.1602 28.7207 67.3887C28.5508 67.6172 28.4658 67.8633 28.4658 68.127H26.8398C26.8398 67.7871 26.9277 67.4502 27.1035 67.1162C27.2793 66.7822 27.5312 66.4805 27.8594 66.2109C28.1934 65.9355 28.5918 65.7188 29.0547 65.5605C29.5234 65.3965 30.0449 65.3145 30.6191 65.3145C31.3105 65.3145 31.9199 65.4316 32.4473 65.666C32.9805 65.9004 33.3965 66.2549 33.6953 66.7295C34 67.1982 34.1523 67.7871 34.1523 68.4961V72.9258C34.1523 73.2422 34.1787 73.5791 34.2314 73.9365C34.29 74.2939 34.375 74.6016 34.4863 74.8594V75H32.79C32.708 74.8125 32.6436 74.5635 32.5967 74.2529C32.5498 73.9365 32.5264 73.6436 32.5264 73.374ZM32.8076 69.2344L32.8252 70.377H31.1816C30.7188 70.377 30.3057 70.415 29.9424 70.4912C29.5791 70.5615 29.2744 70.6699 29.0283 70.8164C28.7822 70.9629 28.5947 71.1475 28.4658 71.3701C28.3369 71.5869 28.2725 71.8418 28.2725 72.1348C28.2725 72.4336 28.3398 72.7061 28.4746 72.9521C28.6094 73.1982 28.8115 73.3945 29.0811 73.541C29.3564 73.6816 29.6934 73.752 30.0918 73.752C30.5898 73.752 31.0293 73.6465 31.4102 73.4355C31.791 73.2246 32.0928 72.9668 32.3154 72.6621C32.5439 72.3574 32.667 72.0615 32.6846 71.7744L33.3789 72.5566C33.3379 72.8027 33.2266 73.0752 33.0449 73.374C32.8633 73.6729 32.6201 73.96 32.3154 74.2354C32.0166 74.5049 31.6592 74.7305 31.2432 74.9121C30.833 75.0879 30.3701 75.1758 29.8545 75.1758C29.21 75.1758 28.6445 75.0498 28.1582 74.7979C27.6777 74.5459 27.3027 74.209 27.0332 73.7871C26.7695 73.3594 26.6377 72.8818 26.6377 72.3545C26.6377 71.8447 26.7373 71.3965 26.9365 71.0098C27.1357 70.6172 27.4229 70.292 27.7979 70.0342C28.1729 69.7705 28.624 69.5713 29.1514 69.4365C29.6787 69.3018 30.2676 69.2344 30.918 69.2344H32.8076ZM40.6914 65.4902V66.7383H35.5498V65.4902H40.6914ZM37.29 63.1787H38.916V72.6445C38.916 72.9668 38.9658 73.21 39.0654 73.374C39.165 73.5381 39.2939 73.6465 39.4521 73.6992C39.6104 73.752 39.7803 73.7783 39.9619 73.7783C40.0967 73.7783 40.2373 73.7666 40.3838 73.7432C40.5361 73.7139 40.6504 73.6904 40.7266 73.6729L40.7354 75C40.6064 75.041 40.4365 75.0791 40.2256 75.1143C40.0205 75.1553 39.7715 75.1758 39.4785 75.1758C39.0801 75.1758 38.7139 75.0967 38.3799 74.9385C38.0459 74.7803 37.7793 74.5166 37.5801 74.1475C37.3867 73.7725 37.29 73.2686 37.29 72.6357V63.1787ZM46.5449 75.1758C45.8828 75.1758 45.2822 75.0645 44.7432 74.8418C44.21 74.6133 43.75 74.2939 43.3633 73.8838C42.9824 73.4736 42.6895 72.9873 42.4844 72.4248C42.2793 71.8623 42.1768 71.2471 42.1768 70.5791V70.21C42.1768 69.4365 42.291 68.748 42.5195 68.1445C42.748 67.5352 43.0586 67.0195 43.4512 66.5977C43.8438 66.1758 44.2891 65.8564 44.7871 65.6396C45.2852 65.4229 45.8008 65.3145 46.334 65.3145C47.0137 65.3145 47.5996 65.4316 48.0918 65.666C48.5898 65.9004 48.9971 66.2285 49.3135 66.6504C49.6299 67.0664 49.8643 67.5586 50.0166 68.127C50.1689 68.6895 50.2451 69.3047 50.2451 69.9727V70.7021H43.1436V69.375H48.6191V69.252C48.5957 68.8301 48.5078 68.4199 48.3555 68.0215C48.209 67.623 47.9746 67.2949 47.6523 67.0371C47.3301 66.7793 46.8906 66.6504 46.334 66.6504C45.9648 66.6504 45.625 66.7295 45.3145 66.8877C45.0039 67.04 44.7373 67.2686 44.5146 67.5732C44.292 67.8779 44.1191 68.25 43.9961 68.6895C43.873 69.1289 43.8115 69.6357 43.8115 70.21V70.5791C43.8115 71.0303 43.873 71.4551 43.9961 71.8535C44.125 72.2461 44.3096 72.5918 44.5498 72.8906C44.7959 73.1895 45.0918 73.4238 45.4375 73.5938C45.7891 73.7637 46.1875 73.8486 46.6328 73.8486C47.207 73.8486 47.6934 73.7314 48.0918 73.4971C48.4902 73.2627 48.8389 72.9492 49.1377 72.5566L50.1221 73.3389C49.917 73.6494 49.6562 73.9453 49.3398 74.2266C49.0234 74.5078 48.6338 74.7363 48.1709 74.9121C47.7139 75.0879 47.1719 75.1758 46.5449 75.1758ZM53.7695 66.9844V75H52.1436V65.4902H53.7256L53.7695 66.9844ZM56.7402 65.4375L56.7314 66.9492C56.5967 66.9199 56.4678 66.9023 56.3447 66.8965C56.2275 66.8848 56.0928 66.8789 55.9404 66.8789C55.5654 66.8789 55.2344 66.9375 54.9473 67.0547C54.6602 67.1719 54.417 67.3359 54.2178 67.5469C54.0186 67.7578 53.8604 68.0098 53.7432 68.3027C53.6318 68.5898 53.5586 68.9062 53.5234 69.252L53.0664 69.5156C53.0664 68.9414 53.1221 68.4023 53.2334 67.8984C53.3506 67.3945 53.5293 66.9492 53.7695 66.5625C54.0098 66.1699 54.3145 65.8652 54.6836 65.6484C55.0586 65.4258 55.5039 65.3145 56.0195 65.3145C56.1367 65.3145 56.2715 65.3291 56.4238 65.3584C56.5762 65.3818 56.6816 65.4082 56.7402 65.4375ZM60.8096 75H59.1836V64.4883C59.1836 63.8027 59.3066 63.2256 59.5527 62.7568C59.8047 62.2822 60.165 61.9248 60.6338 61.6846C61.1025 61.4385 61.6592 61.3154 62.3037 61.3154C62.4912 61.3154 62.6787 61.3271 62.8662 61.3506C63.0596 61.374 63.2471 61.4092 63.4287 61.4561L63.3408 62.7832C63.2178 62.7539 63.0771 62.7334 62.9189 62.7217C62.7666 62.71 62.6143 62.7041 62.4619 62.7041C62.1162 62.7041 61.8174 62.7744 61.5654 62.915C61.3193 63.0498 61.1318 63.249 61.0029 63.5127C60.874 63.7764 60.8096 64.1016 60.8096 64.4883V75ZM62.8311 65.4902V66.7383H57.6807V65.4902H62.8311ZM70.249 73.374V68.4785C70.249 68.1035 70.1729 67.7783 70.0205 67.5029C69.874 67.2217 69.6514 67.0049 69.3525 66.8525C69.0537 66.7002 68.6846 66.624 68.2451 66.624C67.835 66.624 67.4746 66.6943 67.1641 66.835C66.8594 66.9756 66.6191 67.1602 66.4434 67.3887C66.2734 67.6172 66.1885 67.8633 66.1885 68.127H64.5625C64.5625 67.7871 64.6504 67.4502 64.8262 67.1162C65.002 66.7822 65.2539 66.4805 65.582 66.2109C65.916 65.9355 66.3145 65.7188 66.7773 65.5605C67.2461 65.3965 67.7676 65.3145 68.3418 65.3145C69.0332 65.3145 69.6426 65.4316 70.1699 65.666C70.7031 65.9004 71.1191 66.2549 71.418 66.7295C71.7227 67.1982 71.875 67.7871 71.875 68.4961V72.9258C71.875 73.2422 71.9014 73.5791 71.9541 73.9365C72.0127 74.2939 72.0977 74.6016 72.209 74.8594V75H70.5127C70.4307 74.8125 70.3662 74.5635 70.3193 74.2529C70.2725 73.9365 70.249 73.6436 70.249 73.374ZM70.5303 69.2344L70.5479 70.377H68.9043C68.4414 70.377 68.0283 70.415 67.665 70.4912C67.3018 70.5615 66.9971 70.6699 66.751 70.8164C66.5049 70.9629 66.3174 71.1475 66.1885 71.3701C66.0596 71.5869 65.9951 71.8418 65.9951 72.1348C65.9951 72.4336 66.0625 72.7061 66.1973 72.9521C66.332 73.1982 66.5342 73.3945 66.8037 73.541C67.0791 73.6816 67.416 73.752 67.8145 73.752C68.3125 73.752 68.752 73.6465 69.1328 73.4355C69.5137 73.2246 69.8154 72.9668 70.0381 72.6621C70.2666 72.3574 70.3896 72.0615 70.4072 71.7744L71.1016 72.5566C71.0605 72.8027 70.9492 73.0752 70.7676 73.374C70.5859 73.6729 70.3428 73.96 70.0381 74.2354C69.7393 74.5049 69.3818 74.7305 68.9658 74.9121C68.5557 75.0879 68.0928 75.1758 67.5771 75.1758C66.9326 75.1758 66.3672 75.0498 65.8809 74.7979C65.4004 74.5459 65.0254 74.209 64.7559 73.7871C64.4922 73.3594 64.3604 72.8818 64.3604 72.3545C64.3604 71.8447 64.46 71.3965 64.6592 71.0098C64.8584 70.6172 65.1455 70.292 65.5205 70.0342C65.8955 69.7705 66.3467 69.5713 66.874 69.4365C67.4014 69.3018 67.9902 69.2344 68.6406 69.2344H70.5303ZM76.1992 61.5V75H74.5645V61.5H76.1992ZM80.5762 61.5V75H78.9414V61.5H80.5762ZM88.7236 72.4775C88.7236 72.2432 88.6709 72.0264 88.5654 71.8271C88.4658 71.6221 88.2578 71.4375 87.9414 71.2734C87.6309 71.1035 87.1621 70.957 86.5352 70.834C86.0078 70.7227 85.5303 70.5908 85.1025 70.4385C84.6807 70.2861 84.3203 70.1016 84.0215 69.8848C83.7285 69.668 83.5029 69.4131 83.3447 69.1201C83.1865 68.8271 83.1074 68.4844 83.1074 68.0918C83.1074 67.7168 83.1895 67.3623 83.3535 67.0283C83.5234 66.6943 83.7607 66.3984 84.0654 66.1406C84.376 65.8828 84.748 65.6807 85.1816 65.5342C85.6152 65.3877 86.0986 65.3145 86.6318 65.3145C87.3936 65.3145 88.0439 65.4492 88.583 65.7188C89.1221 65.9883 89.5352 66.3486 89.8223 66.7998C90.1094 67.2451 90.2529 67.7402 90.2529 68.2852H88.627C88.627 68.0215 88.5479 67.7666 88.3896 67.5205C88.2373 67.2686 88.0117 67.0605 87.7129 66.8965C87.4199 66.7324 87.0596 66.6504 86.6318 66.6504C86.1807 66.6504 85.8145 66.7207 85.5332 66.8613C85.2578 66.9961 85.0557 67.1689 84.9268 67.3799C84.8037 67.5908 84.7422 67.8135 84.7422 68.0479C84.7422 68.2236 84.7715 68.3818 84.8301 68.5225C84.8945 68.6572 85.0059 68.7832 85.1641 68.9004C85.3223 69.0117 85.5449 69.1172 85.832 69.2168C86.1191 69.3164 86.4854 69.416 86.9307 69.5156C87.71 69.6914 88.3516 69.9023 88.8555 70.1484C89.3594 70.3945 89.7344 70.6963 89.9805 71.0537C90.2266 71.4111 90.3496 71.8447 90.3496 72.3545C90.3496 72.7705 90.2617 73.1514 90.0859 73.4971C89.916 73.8428 89.667 74.1416 89.3389 74.3936C89.0166 74.6396 88.6299 74.833 88.1787 74.9736C87.7334 75.1084 87.2324 75.1758 86.6758 75.1758C85.8379 75.1758 85.1289 75.0264 84.5488 74.7275C83.9688 74.4287 83.5293 74.042 83.2305 73.5674C82.9316 73.0928 82.7822 72.5918 82.7822 72.0645H84.417C84.4404 72.5098 84.5693 72.8643 84.8037 73.1279C85.0381 73.3857 85.3252 73.5703 85.665 73.6816C86.0049 73.7871 86.3418 73.8398 86.6758 73.8398C87.1211 73.8398 87.4932 73.7812 87.792 73.6641C88.0967 73.5469 88.3281 73.3857 88.4863 73.1807C88.6445 72.9756 88.7236 72.7412 88.7236 72.4775Z" fill="white"/>
</svg>
