<svg width="32" height="32" viewBox="0 0 32 32" fill="none" xmlns="http://www.w3.org/2000/svg">
<path d="M26.666 15.9999H29.3327V18.6666H26.666C24.826 18.6666 23.0127 18.1999 21.3327 17.3332C17.9993 19.0666 13.9993 19.0666 10.666 17.3332C8.98602 18.1999 7.15935 18.6666 5.33268 18.6666H2.66602V15.9999H5.33268C7.18602 15.9999 9.03935 15.3732 10.666 14.2266C13.9193 16.5066 18.0793 16.5066 21.3327 14.2266C22.9593 15.3732 24.8127 15.9999 26.666 15.9999ZM26.666 7.9999H29.3327V10.6666H26.666C24.826 10.6666 23.0127 10.1999 21.3327 9.33323C17.9993 11.0666 13.9993 11.0666 10.666 9.33323C8.98602 10.1999 7.15935 10.6666 5.33268 10.6666H2.66602V7.9999H5.33268C7.18602 7.9999 9.03935 7.37323 10.666 6.22656C13.9193 8.50656 18.0793 8.50656 21.3327 6.22656C22.9593 7.37323 24.8127 7.9999 26.666 7.9999ZM26.666 23.9999H29.3327V26.6666H26.666C24.826 26.6666 23.0127 26.1999 21.3327 25.3332C17.9993 27.0666 13.9993 27.0666 10.666 25.3332C8.98602 26.1999 7.15935 26.6666 5.33268 26.6666H2.66602V23.9999H5.33268C7.18602 23.9999 9.03935 23.3732 10.666 22.2266C13.9193 24.5066 18.0793 24.5066 21.3327 22.2266C22.9593 23.3732 24.8127 23.9999 26.666 23.9999Z" fill="white"/>
</svg>
